<?xml version="1.0" encoding="utf-8"?>
<!-- Generator: Adobe Illustrator 16.0.0, SVG Export Plug-In . SVG Version: 6.00 Build 0)  -->
<!DOCTYPE svg PUBLIC "-//W3C//DTD SVG 1.1//EN" "http://www.w3.org/Graphics/SVG/1.1/DTD/svg11.dtd">
<svg version="1.1" id="Warstwa_1" xmlns="http://www.w3.org/2000/svg" xmlns:xlink="http://www.w3.org/1999/xlink" x="0px" y="0px"
	 width="56.693px" height="56.693px" viewBox="0 0 56.693 56.693" enable-background="new 0 0 56.693 56.693" xml:space="preserve">
<path id="Path_159" fill="#8C8C8C" d="M0.506,28.346c0-15.376,12.464-27.84,27.84-27.84s27.841,12.464,27.841,27.84
	c0,15.375-12.465,27.84-27.841,27.84S0.506,43.721,0.506,28.346"/>
<g>
	<path fill="#FFFFFF" d="M26.143,36.653H25.23v-6.057c-0.004-0.357-0.232-0.678-0.571-0.799c-0.322-0.105-0.677-0.016-0.912,0.229
		l-1.716,1.713c-0.331,0.346-0.331,0.889-0.001,1.232c0.341,0.354,0.902,0.365,1.257,0.025l0.229-0.344v4h-0.912
		c-0.052-0.006-0.104-0.006-0.154,0c-0.462,0.043-0.803,0.451-0.761,0.914c0,0.01,0,0.018,0,0.027
		c0.009,0.496,0.418,0.895,0.915,0.885h3.54c0.505,0,0.912-0.408,0.912-0.912S26.648,36.653,26.143,36.653z"/>
	<path fill="#FFFFFF" d="M43.842,25.918c0.019-5.386-3.744-10.046-9.013-11.165c-5.967-1.266-11.82,2.404-13.349,8.244
		c-4.877,1.302-8.475,5.737-8.475,11.025c0,6.309,5.114,11.422,11.423,11.422v0.006c5.331-0.018,9.791-3.678,11.055-8.619
		C40.397,35.52,43.86,31.061,43.842,25.918z M24.43,43.844c-5.361,0-9.71-4.346-9.71-9.707c-0.001-5.362,4.347-9.71,9.708-9.71
		c5.33,0.075,9.635,4.378,9.71,9.708c0,0.623-0.063,1.232-0.177,1.822c-0.031,0.084-0.048,0.17-0.054,0.264
		C32.954,40.579,29.077,43.844,24.43,43.844z M35.797,35.044c0.031-0.336,0.055-0.674,0.056-1.018c0,0,0-0.002,0-0.004
		c0-6.31-5.114-11.424-11.424-11.424c-0.344,0-0.683,0.021-1.02,0.052c1.118-3.133,3.772-5.513,7.082-6.228
		c5.239-1.133,10.405,2.197,11.537,7.438C43.072,28.683,40.328,33.436,35.797,35.044z"/>
</g>
</svg>
