<?xml version="1.0" encoding="utf-8"?>
<!-- Generator: Adobe Illustrator 16.0.0, SVG Export Plug-In . SVG Version: 6.00 Build 0)  -->
<!DOCTYPE svg PUBLIC "-//W3C//DTD SVG 1.1//EN" "http://www.w3.org/Graphics/SVG/1.1/DTD/svg11.dtd">
<svg version="1.1" id="Warstwa_1" xmlns="http://www.w3.org/2000/svg" xmlns:xlink="http://www.w3.org/1999/xlink" x="0px" y="0px"
	 width="56.693px" height="56.693px" viewBox="0 0 56.693 56.693" enable-background="new 0 0 56.693 56.693" xml:space="preserve">
<path id="Path_153" fill="#C89C53" d="M0.447,28.406C0.414,12.998,12.879,0.479,28.287,0.446
	c15.409-0.032,27.928,12.433,27.96,27.84c0.033,15.409-12.432,27.928-27.84,27.961c-0.02,0-0.04,0-0.06,0
	C12.955,56.263,0.465,43.8,0.447,28.406L0.447,28.406"/>
<g>
	<path fill="#FFFFFF" d="M13.836,20.105h6.399c0.77,0.031,1.483,0.408,1.941,1.027l2.514,3.541c0.156,0.222,0.413,0.351,0.684,0.343
		l0.002,0.001c0.229,0,0.343,0,0.343-0.228c0.024-0.017,0.05-0.031,0.073-0.05c0.345-0.259,0.415-0.748,0.156-1.094l-2.514-3.541
		c-0.79-1.041-2.007-1.67-3.313-1.713h-6.399c-0.466,0.043-0.818,0.444-0.8,0.912C12.922,19.877,13.264,20.219,13.836,20.105z"/>
	<path fill="#FFFFFF" d="M43.743,37.175c-0.024-0.161-0.085-0.318-0.205-0.445l-3.198-3.2c-0.349-0.348-0.909-0.348-1.256-0.001
		c-0.349,0.348-0.349,0.908-0.003,1.256l1.657,1.657h-4.285c-0.769-0.029-1.482-0.408-1.939-1.025l-2.512-3.541
		c-0.254-0.379-0.766-0.481-1.145-0.229c-0.379,0.253-0.48,0.765-0.229,1.145l2.512,3.426c0.79,1.04,2.007,1.669,3.313,1.713
		l4.58,0.161l-1.951,1.951c-0.341,0.35-0.341,0.906,0,1.257c0.156,0.144,0.359,0.225,0.571,0.229v0.006c0.229,0,0.456,0,0.688-0.459
		l3.198-3.199c0.005-0.004,0.005-0.01,0.009-0.014c0.011-0.012,0.016-0.026,0.024-0.04c0.063-0.074,0.112-0.154,0.145-0.241
		c0.003-0.009,0.002-0.019,0.005-0.025c0.028-0.091,0.045-0.184,0.042-0.278c0-0.012,0.005-0.021,0.005-0.033
		C43.763,37.217,43.749,37.197,43.743,37.175z"/>
	<path fill="#FFFFFF" d="M36.456,20.104h4.451l-1.826,1.826c-0.341,0.35-0.341,0.907,0,1.257c0.156,0.145,0.359,0.227,0.571,0.23
		v0.002c0.266-0.02,0.513-0.143,0.688-0.344l3.198-3.199c0.14-0.146,0.206-0.33,0.219-0.518c0.003-0.02,0.015-0.036,0.016-0.056
		c0.024-0.359-0.178-0.68-0.482-0.828l-2.949-3.055c-0.349-0.349-0.909-0.349-1.256-0.001c-0.349,0.347-0.349,0.907-0.003,1.256
		l1.714,1.713h-4.224c-1.307,0.044-2.522,0.674-3.313,1.715L22.295,35.182c-0.425,0.658-1.161,1.048-1.943,1.029h-6.4
		c-0.473-0.032-0.882,0.326-0.914,0.799c-0.031,0.473,0.326,0.882,0.8,0.914h6.399h0.002c1.318,0.007,2.557-0.634,3.313-1.713
		l10.964-15.08C34.939,20.474,35.676,20.086,36.456,20.104z"/>
</g>
</svg>
