<?xml version="1.0" encoding="utf-8"?>
<!-- Generator: Adobe Illustrator 16.0.0, SVG Export Plug-In . SVG Version: 6.00 Build 0)  -->
<!DOCTYPE svg PUBLIC "-//W3C//DTD SVG 1.1//EN" "http://www.w3.org/Graphics/SVG/1.1/DTD/svg11.dtd">
<svg version="1.1" id="Warstwa_1" xmlns="http://www.w3.org/2000/svg" xmlns:xlink="http://www.w3.org/1999/xlink" x="0px" y="0px"
	 width="56.693px" height="56.693px" viewBox="-0.446 -0.446 56.693 56.693" enable-background="new -0.446 -0.446 56.693 56.693"
	 xml:space="preserve">
<path id="Path_150" fill="#156E7A" d="M0,27.9C0,12.491,12.491,0,27.9,0c15.408,0,27.9,12.491,27.9,27.9
	c0,15.408-12.492,27.9-27.9,27.9l0,0C12.491,55.8,0,43.308,0,27.9"/>
<g>
	<path fill="#FFFFFF" d="M42.955,22.346c-1.628-3.853-4.694-6.919-8.547-8.547c-3.854-1.64-8.208-1.64-12.061,0
		c-3.864,1.608-6.936,4.68-8.544,8.544c-3.364,8.083,0.461,17.362,8.544,20.726c1.931,0.792,4.001,1.19,6.089,1.171l0.001,0.002
		c2.064,0.047,4.109-0.395,5.971-1.289c3.852-1.627,6.918-4.693,8.547-8.547C44.593,30.553,44.593,26.199,42.955,22.346z
		 M41.427,33.821c-1.375,3.481-4.129,6.236-7.61,7.61c-3.452,1.406-7.318,1.406-10.771,0c-3.48-1.375-6.236-4.129-7.61-7.61
		c-0.723-1.729-1.091-3.587-1.083-5.46c0.029-7.749,6.335-14.006,14.083-13.977v-0.001c1.845,0,3.673,0.358,5.381,1.055
		c3.481,1.374,6.236,4.129,7.61,7.61C42.833,26.501,42.833,30.368,41.427,33.821z"/>
	<path fill="#FFFFFF" d="M28.903,29.021v-7.258c0.005-0.053,0.005-0.106,0.001-0.159c-0.044-0.474-0.464-0.823-0.938-0.779
		c-0.008,0-0.017,0-0.025,0c-0.511,0.007-0.919,0.427-0.912,0.938v7.729c0.04,0.293,0.213,0.551,0.469,0.699l6.087,3.747
		c0.138,0.094,0.305,0.136,0.47,0.118v0.005c0.245-0.028,0.468-0.151,0.62-0.345c0.316-0.4,0.248-0.98-0.152-1.295L28.903,29.021z"
		/>
</g>
</svg>
