<?xml version="1.0" encoding="UTF-8" standalone="no"?>
<!DOCTYPE svg PUBLIC "-//W3C//DTD SVG 1.1//EN" "http://www.w3.org/Graphics/SVG/1.1/DTD/svg11.dtd">
<svg width="100%" height="100%" viewBox="0 0 85 115" version="1.1" xmlns="http://www.w3.org/2000/svg" xmlns:xlink="http://www.w3.org/1999/xlink" xml:space="preserve" xmlns:serif="http://www.serif.com/" style="fill-rule:evenodd;clip-rule:evenodd;stroke-linejoin:round;stroke-miterlimit:2;">
    <g id="XMLID_1042_" transform="matrix(1,0,0,1,-265.5,-140.2)">
        <g id="XMLID_1590_">
        </g>
        <g id="XMLID_1107_">
            <g id="XMLID_1108_">
                <g id="XMLID_1110_">
                    <path id="XMLID_416_" d="M265.5,140.2L265.5,225.2L350.5,225.2L350.5,140.2L265.5,140.2ZM348.7,223.4L267.3,223.4L267.3,142.1L348.7,142.1L348.7,223.4Z" style="fill:rgb(197,153,82);fill-rule:nonzero;"/>
                </g>
            </g>
        </g>
        <g id="XMLID_982_">
            <g id="XMLID_1017_">
                <g>
                    <g id="XMLID_1100_">
                    </g>
                </g>
            </g>
            <g id="XMLID_983_">
                <g id="XMLID_984_">
                    <path id="XMLID_395_" d="M332.9,190.4L332.9,191.5C332.9,201.7 324.6,210 314.4,210C304.5,210 296.4,202.2 295.9,192.4C286.1,191.9 278.3,183.8 278.3,173.9C278.3,163.7 286.6,155.4 296.8,155.4C301.7,155.4 306.4,157.3 309.9,160.8L310,160.9L308.7,162.2L308.6,162.1C305.5,159 301.3,157.2 296.8,157.2C287.6,157.2 280.2,164.7 280.2,173.8C280.2,182.7 287.2,189.9 295.9,190.4C296.4,180.6 304.5,172.9 314.4,172.9C319.3,172.9 324,174.8 327.5,178.3L327.6,178.4L326.3,179.7L326.2,179.6C323,176.4 318.9,174.7 314.4,174.7C305.5,174.7 298.3,181.7 297.8,190.4L309.5,190.4L309.5,192.3L297.8,192.3C298.3,201.1 305.6,208 314.4,208C323.3,208 330.5,201.1 331,192.3L320.4,192.3L320.4,190.4L332.9,190.4Z" style="fill-rule:nonzero;"/>
                </g>
            </g>
        </g>
        <g id="XMLID_948_">
            <g id="XMLID_979_">
                <path id="XMLID_980_" d="M268.5,250.2C267.6,249.7 266.9,249 266.4,248.2C265.9,247.4 265.6,246.4 265.6,245.3C265.6,244.2 265.9,243.3 266.4,242.4C266.9,241.6 267.6,240.9 268.5,240.4C269.4,239.9 270.4,239.7 271.5,239.7C272.4,239.7 273.1,239.8 273.8,240.1C274.5,240.4 275.1,240.8 275.6,241.4L274.6,242.4C273.8,241.5 272.7,241.1 271.5,241.1C270.7,241.1 270,241.3 269.3,241.6C268.6,242 268.1,242.5 267.8,243.1C267.4,243.7 267.2,244.5 267.2,245.3C267.2,246.1 267.4,246.8 267.8,247.5C268.2,248.1 268.7,248.6 269.3,249C270,249.4 270.7,249.5 271.5,249.5C272.7,249.5 273.7,249.1 274.6,248.2L275.6,249.2C275.1,249.8 274.5,250.2 273.8,250.5C273.1,250.8 272.3,250.9 271.4,250.9C270.4,250.9 269.4,250.6 268.5,250.2Z" style="fill-rule:nonzero;"/>
            </g>
            <g id="XMLID_975_">
                <path id="XMLID_976_" d="M278.6,250.3C277.9,249.9 277.4,249.4 277.1,248.8C276.7,248.2 276.5,247.4 276.5,246.6C276.5,245.8 276.7,245.1 277.1,244.4C277.5,243.8 278,243.3 278.6,242.9C279.3,242.5 280,242.4 280.8,242.4C281.6,242.4 282.4,242.6 283,242.9C283.7,243.3 284.2,243.8 284.5,244.4C284.9,245 285.1,245.8 285.1,246.6C285.1,247.4 284.9,248.1 284.5,248.8C284.1,249.4 283.6,249.9 283,250.3C282.3,250.7 281.6,250.8 280.8,250.8C280,250.8 279.3,250.7 278.6,250.3ZM282.3,249.2C282.7,249 283.1,248.6 283.3,248.2C283.5,247.8 283.7,247.2 283.7,246.7C283.7,246.1 283.6,245.6 283.3,245.2C283.1,244.8 282.7,244.4 282.3,244.2C281.9,244 281.4,243.8 280.9,243.8C280.4,243.8 279.9,243.9 279.5,244.2C279.1,244.4 278.7,244.8 278.5,245.2C278.3,245.6 278.1,246.2 278.1,246.7C278.1,247.3 278.2,247.8 278.5,248.2C278.7,248.6 279.1,249 279.5,249.2C279.9,249.4 280.4,249.6 280.9,249.6C281.4,249.5 281.9,249.4 282.3,249.2Z" style="fill-rule:nonzero;"/>
            </g>
            <g id="XMLID_972_">
                <path id="XMLID_973_" d="M294.2,243.3C294.8,243.9 295.1,244.8 295.1,246L295.1,250.8L293.6,250.8L293.6,246.2C293.6,245.4 293.4,244.8 293,244.4C292.6,244 292.1,243.8 291.3,243.8C290.5,243.8 289.8,244 289.4,244.5C288.9,245 288.7,245.7 288.7,246.5L288.7,250.8L287.2,250.8L287.2,242.5L288.6,242.5L288.6,243.8C288.9,243.4 289.3,243 289.8,242.8C290.3,242.6 290.9,242.5 291.6,242.5C292.8,242.4 293.6,242.7 294.2,243.3Z" style="fill-rule:nonzero;"/>
            </g>
            <g id="XMLID_969_">
                <path id="XMLID_970_" d="M298.4,250.6C297.8,250.4 297.3,250.2 296.9,249.9L297.5,248.7C297.9,249 298.3,249.2 298.8,249.3C299.3,249.5 299.8,249.5 300.4,249.5C301.7,249.5 302.4,249.1 302.4,248.4C302.4,248.2 302.3,248 302.1,247.8C301.9,247.7 301.7,247.5 301.4,247.5C301.1,247.4 300.8,247.4 300.3,247.3C299.6,247.2 299.1,247.1 298.7,246.9C298.3,246.8 297.9,246.5 297.6,246.2C297.3,245.9 297.1,245.4 297.1,244.8C297.1,244 297.4,243.4 298,243C298.6,242.6 299.5,242.3 300.5,242.3C301.1,242.3 301.6,242.4 302.2,242.5C302.8,242.6 303.2,242.8 303.6,243L303,244.2C302.3,243.8 301.5,243.5 300.6,243.5C300,243.5 299.5,243.6 299.1,243.8C298.8,244 298.6,244.3 298.6,244.6C298.6,244.9 298.7,245.1 298.9,245.2C299.1,245.4 299.3,245.5 299.6,245.5C299.9,245.6 300.3,245.7 300.8,245.8C301.5,245.9 302,246 302.4,246.2C302.8,246.3 303.2,246.6 303.5,246.9C303.8,247.2 303.9,247.7 303.9,248.2C303.9,249 303.6,249.5 302.9,250C302.3,250.4 301.4,250.7 300.3,250.7C299.6,250.8 299,250.8 298.4,250.6Z" style="fill-rule:nonzero;"/>
            </g>
            <g id="XMLID_966_">
                <path id="XMLID_967_" d="M313.5,242.5L313.5,250.8L312.1,250.8L312.1,249.5C311.8,249.9 311.4,250.3 310.9,250.5C310.4,250.7 309.9,250.9 309.3,250.9C308.2,250.9 307.3,250.6 306.7,250C306.1,249.4 305.7,248.5 305.7,247.3L305.7,242.5L307.2,242.5L307.2,247.1C307.2,247.9 307.4,248.5 307.8,248.9C308.2,249.3 308.7,249.5 309.5,249.5C310.3,249.5 310.9,249.3 311.4,248.8C311.9,248.3 312.1,247.6 312.1,246.8L312.1,242.5L313.5,242.5Z" style="fill-rule:nonzero;"/>
            </g>
            <g id="XMLID_963_">
                <rect id="XMLID_964_" x="316.4" y="239.1" width="1.5" height="11.6" style="fill-rule:nonzero;"/>
            </g>
            <g id="XMLID_960_">
                <path id="XMLID_961_" d="M325.6,250.3C325.4,250.5 325.1,250.6 324.8,250.7C324.5,250.8 324.1,250.8 323.8,250.8C323,250.8 322.3,250.6 321.9,250.1C321.4,249.7 321.2,249 321.2,248.2L321.2,243.6L319.8,243.6L319.8,242.4L321.2,242.4L321.2,240.6L322.7,240.6L322.7,242.4L325.1,242.4L325.1,243.6L322.7,243.6L322.7,248.1C322.7,248.5 322.8,248.9 323,249.1C323.2,249.3 323.5,249.5 324,249.5C324.5,249.5 324.8,249.4 325.2,249.1L325.6,250.3Z" style="fill-rule:nonzero;"/>
            </g>
            <g id="XMLID_956_">
                <path id="XMLID_957_" d="M327.4,240.6C327.2,240.4 327.1,240.2 327.1,239.9C327.1,239.6 327.2,239.4 327.4,239.2C327.6,239 327.8,238.9 328.1,238.9C328.4,238.9 328.6,239 328.8,239.2C329,239.4 329.1,239.6 329.1,239.9C329.1,240.2 329,240.4 328.8,240.6C328.6,240.8 328.4,240.9 328.1,240.9C327.9,240.9 327.6,240.8 327.4,240.6ZM327.4,242.5L328.9,242.5L328.9,250.8L327.4,250.8L327.4,242.5Z" style="fill-rule:nonzero;"/>
            </g>
            <g id="XMLID_953_">
                <path id="XMLID_954_" d="M338.7,243.3C339.3,243.9 339.6,244.8 339.6,246L339.6,250.8L338.1,250.8L338.1,246.2C338.1,245.4 337.9,244.8 337.5,244.4C337.1,244 336.6,243.8 335.8,243.8C335,243.8 334.3,244 333.9,244.5C333.4,245 333.2,245.7 333.2,246.5L333.2,250.8L331.7,250.8L331.7,242.5L333.1,242.5L333.1,243.8C333.4,243.4 333.8,243 334.3,242.8C334.8,242.6 335.4,242.5 336.1,242.5C337.2,242.4 338.1,242.7 338.7,243.3Z" style="fill-rule:nonzero;"/>
            </g>
            <g id="XMLID_949_">
                <path id="XMLID_950_" d="M350.4,242.5L350.4,249.7C350.4,251.1 350,252.2 349.3,252.9C348.6,253.6 347.5,253.9 346.1,253.9C345.3,253.9 344.6,253.8 343.9,253.6C343.2,253.4 342.6,253.1 342.2,252.7L342.9,251.5C343.3,251.8 343.8,252.1 344.3,252.3C344.8,252.5 345.5,252.6 346.1,252.6C347.1,252.6 347.8,252.4 348.2,251.9C348.7,251.4 348.9,250.7 348.9,249.8L348.9,249.1C348.5,249.5 348.1,249.8 347.6,250.1C347.1,250.3 346.5,250.4 345.9,250.4C345.1,250.4 344.4,250.2 343.8,249.9C343.2,249.6 342.7,249.1 342.3,248.5C341.9,247.9 341.8,247.2 341.8,246.4C341.8,245.6 342,244.9 342.3,244.3C342.7,243.7 343.2,243.2 343.8,242.9C344.4,242.6 345.2,242.4 345.9,242.4C346.5,242.4 347.1,242.5 347.6,242.7C348.1,242.9 348.6,243.3 348.9,243.7L348.9,242.4L350.4,242.5ZM347.5,248.8C347.9,248.6 348.3,248.3 348.5,247.8C348.7,247.4 348.9,246.9 348.9,246.4C348.9,245.6 348.6,244.9 348.1,244.5C347.6,244 346.9,243.8 346.1,243.8C345.3,243.8 344.6,244 344,244.5C343.5,245 343.2,245.6 343.2,246.4C343.2,246.9 343.3,247.4 343.6,247.8C343.9,248.2 344.2,248.5 344.6,248.8C345,249 345.5,249.1 346.1,249.1C346.6,249.1 347.1,249 347.5,248.8Z" style="fill-rule:nonzero;"/>
            </g>
        </g>
    </g>
</svg>
