<?xml version="1.0" encoding="UTF-8" standalone="no"?>
<!DOCTYPE svg PUBLIC "-//W3C//DTD SVG 1.1//EN" "http://www.w3.org/Graphics/SVG/1.1/DTD/svg11.dtd">
<svg width="100%" height="100%" viewBox="0 0 199 34" version="1.1" xmlns="http://www.w3.org/2000/svg" xmlns:xlink="http://www.w3.org/1999/xlink" xml:space="preserve" xmlns:serif="http://www.serif.com/" style="fill-rule:evenodd;clip-rule:evenodd;stroke-linejoin:round;stroke-miterlimit:2;">
    <g id="XMLID_1259_" transform="matrix(1,0,0,1,-33.3,-106.3)">
        <g id="XMLID_337_">
            <g>
                <g id="XMLID_338_">
                </g>
            </g>
        </g>
        <g id="XMLID_327_">
            <g id="XMLID_328_">
                <g id="XMLID_329_">
                    <path id="XMLID_398_" d="M33.3,106.3L33.3,140L66.9,140L66.9,106.3L33.3,106.3ZM65.7,138.8L34.4,138.8L34.4,107.5L65.7,107.5L65.7,138.8Z" style="fill:rgb(197,153,82);fill-rule:nonzero;"/>
                </g>
            </g>
        </g>
        <path id="XMLID_1083_" d="M55,125.8L55,127.2L59.1,127.2C58.8,130.4 56.1,132.9 52.9,132.9C49.7,132.9 47,130.4 46.7,127.2L51.2,127.2L51.2,126L46.7,126C47,122.8 49.7,120.3 52.9,120.3C54.6,120.3 56.1,121 57.3,122.1L57.5,122.3L58.3,121.4L58.1,121.2C56.7,119.8 54.8,119 52.8,119C48.9,119 45.7,122 45.4,125.8C42.2,125.5 39.7,122.8 39.7,119.6C39.7,116.1 42.5,113.3 46,113.3C47.7,113.3 49.3,114 50.4,115.1L50.6,115.3L51.4,114.5L51.2,114.3C49.8,112.9 47.9,112.1 45.9,112.1C41.8,112.1 38.4,115.5 38.4,119.6C38.4,123.5 41.4,126.7 45.3,127C45.6,130.9 48.8,133.9 52.7,133.9C56.8,133.9 60.2,130.6 60.2,126.4L60.2,125.8L55,125.8Z" style="fill-rule:nonzero;"/>
        <g id="XMLID_268_">
            <g id="XMLID_299_">
                <path id="XMLID_300_" d="M89.4,131.9C87.7,131.9 86.1,131.5 84.7,130.7C83.3,129.9 82.2,128.9 81.4,127.5C80.6,126.1 80.2,124.6 80.2,122.9C80.2,121.2 80.6,119.7 81.4,118.3C82.2,116.9 83.3,115.9 84.7,115.1C86.1,114.3 87.7,113.9 89.4,113.9C91.9,113.9 94,114.7 95.7,116.3L96.6,115.3C95.7,114.4 94.7,113.7 93.4,113.2C92.2,112.7 90.8,112.5 89.3,112.5C87.3,112.5 85.5,113 83.9,113.8C82.3,114.7 81,115.9 80.1,117.5C79.2,119.1 78.7,120.8 78.7,122.8C78.7,124.8 79.2,126.5 80.1,128.1C81,129.7 82.3,130.9 83.9,131.8C85.5,132.7 87.3,133.1 89.3,133.1C90.8,133.1 92.1,132.9 93.4,132.4C94.7,131.9 95.7,131.2 96.6,130.3L95.7,129.3C94,131.1 91.9,131.9 89.4,131.9Z" style="fill-rule:nonzero;"/>
            </g>
            <g id="XMLID_295_">
                <path id="XMLID_296_" d="M112.9,121.5C112.2,120.3 111.3,119.4 110.2,118.7C109,118 107.7,117.7 106.3,117.7C104.9,117.7 103.6,118 102.4,118.7C101.2,119.4 100.3,120.3 99.7,121.5C99,122.7 98.7,124 98.7,125.5C98.7,127 99,128.3 99.7,129.5C100.4,130.7 101.3,131.6 102.4,132.3C103.6,133 104.8,133.3 106.3,133.3C107.7,133.3 109,133 110.2,132.3C111.3,131.6 112.2,130.7 112.9,129.5C113.6,128.3 113.9,127 113.9,125.5C113.9,124 113.6,122.7 112.9,121.5ZM111.6,128.8C111.1,129.8 110.3,130.5 109.4,131.1C108.5,131.6 107.4,131.9 106.3,131.9C105.1,131.9 104.1,131.6 103.2,131.1C102.3,130.6 101.6,129.8 101,128.8C100.5,127.8 100.2,126.7 100.2,125.5C100.2,124.3 100.5,123.2 101,122.2C101.5,121.2 102.3,120.5 103.2,119.9C104.1,119.4 105.2,119.1 106.3,119.1C107.5,119.1 108.5,119.4 109.4,119.9C110.3,120.4 111.1,121.2 111.6,122.2C112.1,123.2 112.4,124.3 112.4,125.5C112.4,126.7 112.2,127.9 111.6,128.8Z" style="fill-rule:nonzero;"/>
            </g>
            <g id="XMLID_292_">
                <path id="XMLID_293_" d="M130.3,119.5C129.2,118.4 127.7,117.8 125.8,117.8C124.4,117.8 123.2,118.1 122.1,118.7C121.1,119.3 120.3,120.1 119.8,121.2L119.8,117.9L118.4,117.9L118.4,133.1L119.9,133.1L119.9,125C119.9,123.2 120.4,121.8 121.4,120.7C122.4,119.6 123.8,119.1 125.6,119.1C127.2,119.1 128.4,119.6 129.2,120.4C130.1,121.3 130.5,122.6 130.5,124.3L130.5,133.1L132,133.1L132,124.2C132,122.2 131.4,120.6 130.3,119.5Z" style="fill-rule:nonzero;"/>
            </g>
            <g id="XMLID_289_">
                <path id="XMLID_290_" d="M147,126.8C146.5,126.3 145.9,125.9 145.1,125.6C144.4,125.4 143.4,125.1 142.2,124.9C141.1,124.7 140.3,124.5 139.7,124.3C139.1,124.1 138.6,123.8 138.2,123.5C137.8,123.1 137.6,122.6 137.6,121.9C137.6,121 138,120.4 138.7,119.8C139.4,119.3 140.5,119 141.9,119C142.7,119 143.6,119.1 144.3,119.4C145,119.7 145.8,120 146.4,120.4L147.1,119.2C146.5,118.8 145.7,118.4 144.8,118.1C143.8,117.8 142.9,117.7 141.9,117.7C140.1,117.7 138.6,118.1 137.6,118.9C136.6,119.7 136.1,120.7 136.1,121.9C136.1,122.9 136.4,123.7 136.9,124.2C137.4,124.7 138.1,125.2 138.8,125.4C139.5,125.6 140.5,125.9 141.7,126.1C142.7,126.3 143.5,126.5 144.1,126.6C144.7,126.8 145.2,127.1 145.6,127.4C146,127.8 146.2,128.3 146.2,128.9C146.2,129.8 145.8,130.5 145.1,131C144.4,131.5 143.2,131.8 141.7,131.8C140.6,131.8 139.6,131.6 138.6,131.3C137.6,131 136.8,130.5 136.2,130L135.5,131.2C136.1,131.8 137,132.2 138.1,132.6C139.2,133 140.4,133.2 141.6,133.2C143.5,133.2 145,132.8 146,132.1C147,131.3 147.6,130.3 147.6,129.1C147.8,128.1 147.5,127.4 147,126.8Z" style="fill-rule:nonzero;"/>
            </g>
            <g id="XMLID_286_">
                <path id="XMLID_287_" d="M163.7,117.9L163.7,126C163.7,127.8 163.2,129.2 162.2,130.3C161.2,131.4 159.9,131.9 158.2,131.9C156.6,131.9 155.4,131.5 154.5,130.6C153.6,129.7 153.2,128.4 153.2,126.7L153.2,118L151.7,118L151.7,126.9C151.7,129 152.3,130.6 153.4,131.7C154.5,132.8 156.1,133.4 158.1,133.4C159.4,133.4 160.6,133.1 161.6,132.5C162.6,131.9 163.3,131.1 163.8,130L163.8,133.3L165.2,133.3L165.2,118.1L163.7,118.1L163.7,117.9Z" style="fill-rule:nonzero;"/>
            </g>
            <g id="XMLID_283_">
                <rect id="XMLID_284_" x="171.3" y="111.5" width="1.5" height="21.6" style="fill-rule:nonzero;"/>
            </g>
            <g id="XMLID_280_">
                <path id="XMLID_281_" d="M185.6,131.1C185,131.7 184.2,131.9 183.2,131.9C182.3,131.9 181.6,131.6 181.1,131.1C180.6,130.6 180.4,129.8 180.4,128.8L180.4,119L185.2,119L185.2,117.7L180.4,117.7L180.4,114.4L179,114.4L179,117.7L176.2,117.7L176.2,119L179,119L179,128.9C179,130.2 179.4,131.2 180.1,131.9C180.8,132.6 181.8,133 183.2,133C183.8,133 184.4,132.9 184.9,132.7C185.4,132.5 185.9,132.2 186.3,131.9L185.6,131.1Z" style="fill-rule:nonzero;"/>
            </g>
            <g id="XMLID_276_">
                <path id="XMLID_277_" d="M190.2,117.9L190.2,133.1L191.7,133.1L191.7,117.9L190.2,117.9ZM191.8,112.2C191.6,112 191.3,111.9 191,111.9C190.7,111.9 190.4,112 190.2,112.2C190,112.4 189.9,112.7 189.9,113.1C189.9,113.4 190,113.7 190.2,113.9C190.4,114.1 190.7,114.2 191,114.2C191.3,114.2 191.6,114.1 191.8,113.9C192,113.7 192.2,113.4 192.2,113.1C192.2,112.8 192,112.4 191.8,112.2Z" style="fill-rule:nonzero;"/>
            </g>
            <g id="XMLID_273_">
                <path id="XMLID_274_" d="M209.7,119.5C208.6,118.4 207.1,117.8 205.2,117.8C203.8,117.8 202.6,118.1 201.5,118.7C200.5,119.3 199.7,120.1 199.2,121.2L199.2,117.9L197.8,117.9L197.8,133.1L199.3,133.1L199.3,125C199.3,123.2 199.8,121.8 200.8,120.7C201.8,119.6 203.2,119.1 205,119.1C206.5,119.1 207.8,119.6 208.6,120.4C209.5,121.3 209.9,122.6 209.9,124.3L209.9,133.1L211.4,133.1L211.4,124.2C211.4,122.2 210.8,120.6 209.7,119.5Z" style="fill-rule:nonzero;"/>
            </g>
            <g id="XMLID_269_">
                <path id="XMLID_270_" d="M229.7,117.8L229.7,121.3C229.1,120.2 228.2,119.3 227.1,118.7C226,118.1 224.7,117.8 223.3,117.8C221.9,117.8 220.6,118.1 219.5,118.7C218.3,119.3 217.5,120.2 216.8,121.3C216.1,122.4 215.8,123.7 215.8,125.1C215.8,126.5 216.1,127.8 216.8,128.9C217.5,130 218.4,130.9 219.5,131.5C220.7,132.1 221.9,132.4 223.3,132.4C224.7,132.4 225.9,132.1 227,131.5C228.1,130.9 229,130 229.6,128.9L229.6,131.5C229.6,133.5 229.1,135 228.2,136C227.2,137 225.7,137.4 223.7,137.4C222.5,137.4 221.4,137.2 220.3,136.8C219.2,136.4 218.3,135.9 217.6,135.2L216.8,136.3C217.6,137.1 218.6,137.6 219.8,138.1C221,138.5 222.4,138.7 223.8,138.7C226.3,138.7 228.1,138.1 229.3,136.9C230.5,135.7 231.1,133.8 231.1,131.3L231.1,117.8L229.7,117.8ZM228.8,128.3C228.3,129.2 227.5,129.9 226.6,130.4C225.6,130.9 224.6,131.2 223.4,131.2C222.2,131.2 221.2,130.9 220.2,130.4C219.3,129.9 218.5,129.2 218,128.3C217.5,127.4 217.2,126.3 217.2,125.1C217.2,123.9 217.5,122.9 218,122C218.5,121.1 219.3,120.4 220.2,119.9C221.1,119.4 222.2,119.1 223.4,119.1C224.6,119.1 225.7,119.4 226.6,119.9C227.6,120.4 228.3,121.1 228.8,122C229.3,122.9 229.6,124 229.6,125.1C229.6,126.3 229.4,127.4 228.8,128.3Z" style="fill-rule:nonzero;"/>
            </g>
        </g>
    </g>
</svg>
