<?xml version="1.0" encoding="utf-8"?>
<!-- Generator: Adobe Illustrator 16.0.0, SVG Export Plug-In . SVG Version: 6.00 Build 0)  -->
<!DOCTYPE svg PUBLIC "-//W3C//DTD SVG 1.1//EN" "http://www.w3.org/Graphics/SVG/1.1/DTD/svg11.dtd">
<svg version="1.1" id="Warstwa_1" xmlns="http://www.w3.org/2000/svg" xmlns:xlink="http://www.w3.org/1999/xlink" x="0px" y="0px"
	 width="169.827px" height="88.031px" viewBox="0 0 169.827 88.031" enable-background="new 0 0 169.827 88.031"
	 xml:space="preserve">
<g>
	<g id="XMLID_130_">
		<path id="XMLID_135_" fill="#DAA528" d="M169.827,30.553v3.237c0,16.552-10.822,27.242-27.611,27.242
			c-16.489,0-29.9-13.699-29.9-30.516C112.315,13.68,125.726,0,142.215,0c8.128,0,15.944,3.401,21.562,9.38l-4.872,4.3
			c-4.376-4.583-10.407-7.189-16.689-7.189c-12.915,0-23.411,10.767-23.411,24.026c0,13.238,10.496,24.009,23.411,24.009
			c11.59,0,19.165-5.978,20.794-16.399l0.178-1.085h-15.771v-6.488H169.827z"/>
		<polygon id="XMLID_134_" points="23.885,1.508 46.62,59.871 39.675,59.871 39.621,59.7 34.162,45.717 23.885,19.388 
			16.429,38.545 8.132,59.871 1.187,59.871 		"/>
		<polygon id="XMLID_133_" points="64.31,1.508 45.917,48.782 49.393,57.677 64.31,19.388 79.396,58.199 82.885,49.216 		"/>
		<polygon id="XMLID_132_" points="94.488,1.508 81.213,35.644 84.709,44.569 94.488,19.388 110.244,59.889 117.204,59.889 		"/>
		<polygon id="XMLID_131_" fill="#DAA528" points="17.26,45.717 34.142,45.717 31.61,39.233 19.789,39.233 		"/>
	</g>
	<g>
		<path d="M12.549,72.7H6.882v15.15H5.704V72.7H0v-0.992h12.55V72.7z"/>
		<path d="M38.26,87.851h-1.005c-0.128,0-0.236-0.025-0.327-0.064c-0.082-0.046-0.169-0.117-0.247-0.234l-5.175-6.544
			c-0.061-0.089-0.126-0.16-0.191-0.221c-0.061-0.063-0.139-0.106-0.212-0.144c-0.082-0.036-0.173-0.059-0.286-0.073
			c-0.112-0.016-0.247-0.024-0.402-0.024h-2.11v7.305h-1.176V71.708h4.126c1.856,0,3.245,0.357,4.171,1.074
			c0.922,0.72,1.382,1.776,1.382,3.167c0,0.622-0.106,1.181-0.314,1.69c-0.214,0.509-0.52,0.957-0.921,1.341
			c-0.402,0.386-0.884,0.697-1.451,0.939c-0.561,0.241-1.193,0.41-1.906,0.49c0.187,0.117,0.349,0.267,0.494,0.455L38.26,87.851z
			 M31.094,79.678c0.72,0,1.356-0.082,1.92-0.251c0.569-0.174,1.048-0.416,1.44-0.734c0.394-0.318,0.693-0.707,0.898-1.155
			c0.206-0.45,0.306-0.955,0.306-1.514c0-1.155-0.377-2.006-1.124-2.557c-0.747-0.563-1.842-0.834-3.28-0.834h-2.95v7.045H31.094z"
			/>
		<path d="M65.107,87.851H64.21c-0.11,0-0.195-0.03-0.269-0.088c-0.061-0.059-0.121-0.131-0.154-0.226l-1.896-4.686h-7.924
			l-1.896,4.686c-0.03,0.089-0.082,0.158-0.16,0.219c-0.074,0.063-0.165,0.095-0.273,0.095h-0.893l6.605-16.143h1.15L65.107,87.851z
			 M61.542,81.984l-3.288-8.158c-0.111-0.262-0.224-0.585-0.332-0.953c-0.048,0.183-0.093,0.352-0.143,0.516
			c-0.055,0.163-0.11,0.314-0.174,0.449l-3.288,8.146H61.542z"/>
		<path d="M93.253,79.775c0,1.243-0.188,2.363-0.559,3.364c-0.373,0.994-0.903,1.844-1.577,2.543
			c-0.676,0.699-1.486,1.232-2.431,1.605c-0.949,0.377-1.993,0.563-3.139,0.563h-5.896V71.708h5.896
			c1.146,0,2.189,0.187,3.139,0.557c0.944,0.375,1.755,0.91,2.431,1.609c0.674,0.702,1.204,1.547,1.577,2.543
			C93.065,77.414,93.253,78.532,93.253,79.775z M92.039,79.775c0-1.129-0.152-2.13-0.469-3.014
			c-0.305-0.882-0.747-1.631-1.316-2.233c-0.576-0.61-1.261-1.074-2.056-1.395c-0.798-0.316-1.682-0.477-2.649-0.477h-4.716V86.9
			h4.716c0.968,0,1.852-0.158,2.649-0.479c0.795-0.318,1.479-0.779,2.056-1.389c0.569-0.606,1.012-1.357,1.316-2.241
			C91.886,81.909,92.039,80.903,92.039,79.775z"/>
		<path d="M110.034,87.851h-1.179V71.708h1.179V87.851z"/>
		<path d="M139.118,71.708v16.143h-0.546c-0.1,0-0.182-0.021-0.247-0.054c-0.069-0.034-0.125-0.093-0.188-0.176L127.652,73.61
			c0.025,0.228,0.037,0.448,0.037,0.651v13.589h-1.031V71.708h0.582c0.111,0,0.187,0.013,0.245,0.039
			c0.059,0.03,0.117,0.084,0.192,0.18l10.459,13.966c-0.021-0.226-0.036-0.438-0.036-0.646V71.708H139.118z"/>
		<path d="M168.635,80.527v5.738c-0.802,0.563-1.661,1.005-2.578,1.309c-0.905,0.303-1.938,0.457-3.078,0.457
			c-1.28,0-2.426-0.195-3.441-0.588c-1.023-0.392-1.894-0.946-2.613-1.668c-0.713-0.717-1.267-1.583-1.648-2.604
			c-0.388-1.022-0.578-2.153-0.578-3.396c0-1.25,0.19-2.379,0.565-3.393c0.379-1.026,0.918-1.885,1.62-2.606
			c0.704-0.719,1.554-1.275,2.548-1.661c0.996-0.395,2.118-0.585,3.368-0.585c0.611,0,1.183,0.035,1.703,0.121
			c0.52,0.078,1.005,0.206,1.455,0.371c0.442,0.164,0.867,0.363,1.255,0.602c0.386,0.245,0.76,0.516,1.115,0.83l-0.318,0.498
			c-0.102,0.185-0.264,0.226-0.479,0.128c-0.115-0.048-0.277-0.149-0.492-0.32c-0.208-0.167-0.502-0.343-0.877-0.529
			c-0.373-0.175-0.836-0.342-1.387-0.482c-0.548-0.149-1.217-0.217-2.01-0.217c-1.053,0-1.993,0.169-2.849,0.498
			c-0.848,0.334-1.571,0.811-2.169,1.44c-0.6,0.62-1.057,1.385-1.382,2.281c-0.325,0.895-0.48,1.904-0.48,3.024
			c0,1.128,0.155,2.148,0.48,3.055c0.325,0.9,0.793,1.672,1.403,2.305c0.615,0.63,1.358,1.111,2.236,1.447
			c0.875,0.333,1.856,0.502,2.952,0.502c0.479,0,0.921-0.03,1.33-0.091c0.405-0.061,0.791-0.146,1.159-0.256
			c0.372-0.112,0.728-0.249,1.074-0.407c0.347-0.169,0.695-0.351,1.053-0.559v-4.35h-3.089c-0.082,0-0.147-0.022-0.208-0.076
			c-0.061-0.05-0.089-0.11-0.089-0.185v-0.634H168.635z"/>
	</g>
</g>
</svg>
