<?xml version="1.0" encoding="utf-8"?>
<!-- Generator: Adobe Illustrator 16.0.0, SVG Export Plug-In . SVG Version: 6.00 Build 0)  -->
<!DOCTYPE svg PUBLIC "-//W3C//DTD SVG 1.1//EN" "http://www.w3.org/Graphics/SVG/1.1/DTD/svg11.dtd">
<svg version="1.1" id="Warstwa_1" xmlns="http://www.w3.org/2000/svg" xmlns:xlink="http://www.w3.org/1999/xlink" x="0px" y="0px"
	 width="167.399px" height="70.556px" viewBox="0 0 167.399 70.556" enable-background="new 0 0 167.399 70.556"
	 xml:space="preserve">
<g>
	<path fill="#0D184D" d="M41.564,41.564c-3.475,3.473-9.104,3.473-12.577,0c-3.469-3.469-3.469-9.1,0-12.572
		c3.473-3.474,9.103-3.474,12.577,0C45.037,32.465,45.037,38.096,41.564,41.564z"/>
	<path fill="#2372BA" d="M60.26,31.88c-1.955,0-3.547-1.588-3.547-3.547c0-1.962,1.592-3.55,3.547-3.55
		c1.959,0,3.543,1.588,3.543,3.55C63.803,30.292,62.219,31.88,60.26,31.88z"/>
	<circle fill="#2372BA" cx="53.439" cy="16.772" r="3.544"/>
	<path fill="#2372BA" d="M44.82,11.944c-0.975,1.696-3.145,2.274-4.842,1.296c-1.697-0.977-2.276-3.146-1.297-4.841
		c0.978-1.696,3.147-2.281,4.844-1.3C45.223,8.078,45.799,10.247,44.82,11.944z"/>
	<circle fill="#2372BA" cx="28.33" cy="10.297" r="3.545"/>
	<path fill="#2372BA" d="M19.841,15.346c0.979,1.694,0.397,3.862-1.3,4.843c-1.695,0.979-3.863,0.396-4.84-1.302
		c-0.982-1.693-0.4-3.863,1.297-4.84C16.692,13.068,18.86,13.65,19.841,15.346z"/>
	<path fill="#2372BA" d="M11.943,25.731c1.693,0.979,2.273,3.149,1.295,4.846c-0.98,1.694-3.146,2.276-4.842,1.294
		C6.7,30.896,6.118,28.729,7.1,27.03C8.077,25.334,10.246,24.756,11.943,25.731z"/>
	<path fill="#2372BA" d="M10.292,38.678c1.962,0,3.546,1.591,3.546,3.547c0,1.959-1.584,3.543-3.546,3.543
		c-1.956,0-3.544-1.584-3.544-3.547C6.748,40.269,8.336,38.678,10.292,38.678z"/>
	<path fill="#2372BA" d="M15.342,50.717c1.695-0.98,3.863-0.398,4.845,1.296c0.979,1.693,0.395,3.862-1.3,4.841
		c-1.695,0.983-3.865,0.398-4.842-1.3C13.066,53.86,13.646,51.693,15.342,50.717z"/>
	<path fill="#2372BA" d="M25.729,58.613c0.979-1.696,3.15-2.276,4.845-1.296c1.696,0.977,2.278,3.146,1.3,4.843
		c-0.982,1.692-3.147,2.274-4.847,1.297C25.332,62.477,24.752,60.311,25.729,58.613z"/>
	<path fill="#2372BA" d="M38.68,60.258c0-1.955,1.584-3.541,3.541-3.541c1.961,0,3.549,1.586,3.547,3.541
		c0,1.961-1.586,3.549-3.547,3.549C40.264,63.807,38.68,62.217,38.68,60.258z"/>
	<circle fill="#2372BA" cx="53.784" cy="53.441" r="3.547"/>
	<path fill="#2372BA" d="M58.609,44.823c-1.693-0.98-2.273-3.147-1.292-4.841c0.978-1.699,3.146-2.274,4.843-1.3
		c1.695,0.979,2.273,3.147,1.296,4.845C62.476,45.22,60.308,45.802,58.609,44.823z"/>
	<path fill="#00A6D3" d="M56.148,35.223c0,1.54-1.254,2.794-2.797,2.794c-1.539,0-2.791-1.254-2.791-2.794
		c0-1.541,1.252-2.797,2.791-2.797C54.895,32.426,56.148,33.682,56.148,35.223z"/>
	<path fill="#00A6D3" d="M52.303,28.613c-0.426,0.241-0.908,0.379-1.396,0.379c-0.993,0-1.927-0.539-2.423-1.401
		c-0.773-1.335-0.314-3.049,1.021-3.82c0.425-0.246,0.907-0.372,1.399-0.372c0.995,0,1.922,0.536,2.418,1.395
		C54.094,26.126,53.637,27.839,52.303,28.613z"/>
	<path fill="#00A6D3" d="M46.688,20.99c-0.501,0.867-1.427,1.4-2.428,1.4c-0.487,0-0.967-0.127-1.396-0.379
		c-1.333-0.764-1.791-2.479-1.021-3.813c0.5-0.864,1.425-1.398,2.422-1.398c0.489,0,0.974,0.131,1.394,0.374
		c0.651,0.376,1.112,0.978,1.306,1.697C47.158,19.596,47.059,20.348,46.688,20.99z"/>
	<path fill="#00A6D3" d="M38.016,17.201c0,1.543-1.256,2.797-2.797,2.797c-1.539,0-2.792-1.254-2.792-2.797
		c0-1.541,1.252-2.795,2.792-2.795C36.76,14.406,38.016,15.66,38.016,17.201z"/>
	<path fill="#00A6D3" d="M28.891,20.372c-0.195,0.724-0.655,1.327-1.305,1.701c-0.426,0.246-0.906,0.374-1.396,0.374
		c-0.997,0-1.923-0.535-2.419-1.396c-0.775-1.336-0.311-3.049,1.02-3.82c0.424-0.242,0.904-0.373,1.396-0.373
		c0.998,0,1.925,0.537,2.422,1.396C28.984,18.902,29.08,19.655,28.891,20.372z"/>
	<path fill="#00A6D3" d="M22.293,25.564c0.193,0.721,0.096,1.477-0.275,2.121c-0.503,0.863-1.431,1.401-2.424,1.401
		c-0.494,0-0.973-0.13-1.398-0.374c-0.647-0.379-1.107-0.98-1.302-1.701c-0.192-0.723-0.093-1.471,0.28-2.123
		c0.498-0.858,1.426-1.398,2.422-1.398c0.488,0,0.969,0.133,1.395,0.377C21.639,24.239,22.1,24.846,22.293,25.564z"/>
	<path fill="#00A6D3" d="M22.072,42.969c0.768,1.333,0.311,3.045-1.026,3.818c-0.424,0.242-0.906,0.372-1.396,0.372
		c-0.994,0-1.924-0.533-2.423-1.395c-0.768-1.339-0.311-3.05,1.024-3.818c0.424-0.247,0.908-0.377,1.395-0.377
		C20.641,41.569,21.572,42.102,22.072,42.969z"/>
	<path fill="#00A6D3" d="M17.2,38.128c-1.542,0-2.8-1.253-2.8-2.794s1.256-2.793,2.798-2.793c1.54,0,2.796,1.252,2.796,2.793
		S18.738,38.128,17.2,38.128z"/>
	<path fill="#00A6D3" d="M28.709,52.36c-0.497,0.86-1.429,1.398-2.426,1.398c-0.486,0-0.971-0.135-1.394-0.378
		c-0.647-0.373-1.106-0.979-1.303-1.696c-0.192-0.722-0.093-1.475,0.276-2.12c0.502-0.859,1.428-1.4,2.43-1.4
		c0.484,0,0.969,0.133,1.391,0.376C29.02,49.31,29.479,51.023,28.709,52.36z"/>
	<path fill="#00A6D3" d="M38.128,53.355c0,1.54-1.257,2.792-2.794,2.792c-1.543,0-2.795-1.252-2.795-2.792
		c0-1.544,1.252-2.794,2.795-2.794C36.871,50.562,38.128,51.812,38.128,53.355z"/>
	<path fill="#00A6D3" d="M45.764,53.323c-0.428,0.246-0.908,0.378-1.396,0.378c-0.996,0-1.924-0.535-2.424-1.396
		c-0.771-1.337-0.309-3.05,1.025-3.822c0.422-0.244,0.906-0.373,1.396-0.373c0.994,0,1.922,0.535,2.42,1.397
		C47.554,50.843,47.098,52.556,45.764,53.323z"/>
	<path fill="#00A6D3" d="M53.383,45.663c-0.5,0.865-1.428,1.4-2.426,1.4c-0.485,0-0.97-0.134-1.395-0.376
		c-1.335-0.771-1.794-2.484-1.026-3.818c0.498-0.862,1.429-1.399,2.427-1.399c0.486,0,0.97,0.13,1.391,0.378
		C53.691,42.619,54.153,44.33,53.383,45.663z"/>
	<path fill="#052576" d="M66.184,50.406c0.225,0.834,0.109,1.704-0.32,2.45c-0.576,0.995-1.65,1.616-2.803,1.616
		c-0.559,0-1.117-0.148-1.605-0.432c-0.753-0.434-1.285-1.129-1.508-1.965c-0.223-0.831-0.107-1.7,0.324-2.449
		c0.574-0.996,1.644-1.611,2.798-1.611c0.563,0,1.118,0.146,1.61,0.432C65.428,48.872,65.961,49.572,66.184,50.406z"/>
	<path fill="#052576" d="M70.556,35.207c0,1.781-1.451,3.229-3.233,3.229c-1.777,0-3.227-1.448-3.227-3.229
		c0-1.777,1.449-3.225,3.227-3.225C69.104,31.982,70.556,33.43,70.556,35.207z"/>
	<path fill="#052576" d="M54.363,6.653c0.219,0.833,0.107,1.704-0.328,2.45c-0.572,0.996-1.645,1.614-2.799,1.614
		c-0.563,0-1.117-0.149-1.611-0.434c-1.541-0.89-2.072-2.868-1.178-4.409c0.574-0.995,1.643-1.614,2.801-1.614
		c0.561,0,1.119,0.146,1.606,0.434C53.604,5.128,54.135,5.82,54.363,6.653z"/>
	<path fill="#052576" d="M64.614,21.99c-0.498,0.285-1.05,0.434-1.614,0.434c-1.154,0-2.229-0.622-2.8-1.616
		c-0.433-0.749-0.545-1.614-0.323-2.45c0.224-0.832,0.754-1.528,1.506-1.959c0.489-0.285,1.047-0.432,1.611-0.432
		c1.15,0,2.225,0.619,2.798,1.611C66.682,19.122,66.151,21.102,64.614,21.99z"/>
	<path fill="#052576" d="M38.436,3.228c0,1.782-1.447,3.231-3.23,3.231c-0.862,0-1.669-0.336-2.283-0.947
		c-0.609-0.611-0.943-1.418-0.943-2.284C31.979,1.451,33.427,0,35.205,0C36.988,0,38.436,1.451,38.436,3.228z"/>
	<path fill="#052576" d="M22.311,8.396c-0.227,0.828-0.76,1.526-1.504,1.957c-0.494,0.287-1.049,0.436-1.611,0.436
		c-1.152,0-2.227-0.618-2.797-1.617c-0.436-0.746-0.551-1.613-0.326-2.447c0.221-0.834,0.754-1.533,1.504-1.961
		c0.488-0.283,1.047-0.432,1.611-0.432c1.152,0,2.223,0.615,2.797,1.612C22.422,6.691,22.533,7.563,22.311,8.396z"/>
	<path fill="#052576" d="M10.281,20.93c-0.574,0.993-1.648,1.614-2.801,1.614c-0.56,0-1.115-0.148-1.609-0.433
		c-0.746-0.432-1.28-1.128-1.503-1.96c-0.225-0.832-0.113-1.702,0.32-2.45c0.577-0.997,1.65-1.616,2.8-1.616
		c0.562,0,1.121,0.15,1.611,0.434c0.747,0.429,1.283,1.126,1.503,1.961C10.83,19.31,10.713,20.184,10.281,20.93z"/>
	<path fill="#052576" d="M6.455,35.352c0,1.777-1.447,3.225-3.227,3.225H3.226C1.443,38.576,0,37.129,0,35.352
		c0-1.783,1.443-3.229,3.226-3.229C5.006,32.123,6.455,33.568,6.455,35.352z"/>
	<path fill="#052576" d="M10.354,49.75c0.89,1.542,0.357,3.518-1.185,4.41c-0.491,0.282-1.051,0.434-1.611,0.434
		c-1.152,0-2.223-0.62-2.799-1.614C3.869,51.438,4.4,49.456,5.94,48.567c0.489-0.282,1.052-0.434,1.611-0.434
		C8.704,48.134,9.777,48.753,10.354,49.75z"/>
	<path fill="#052576" d="M22.106,64.681c-0.571,0.995-1.646,1.616-2.796,1.616c-0.564,0-1.121-0.151-1.613-0.436
		c-1.543-0.891-2.071-2.866-1.181-4.408c0.573-0.994,1.646-1.618,2.796-1.618c0.566,0,1.122,0.157,1.617,0.438
		c0.746,0.432,1.278,1.125,1.502,1.957S22.541,63.935,22.106,64.681z"/>
	<path fill="#052576" d="M38.574,67.325c0,0.865-0.334,1.674-0.947,2.282c-0.61,0.614-1.416,0.948-2.279,0.948
		c-0.865,0-1.677-0.334-2.285-0.948c-0.609-0.608-0.943-1.417-0.943-2.282c0-0.861,0.334-1.673,0.943-2.285
		c0.609-0.605,1.42-0.939,2.285-0.939C37.127,64.101,38.574,65.548,38.574,67.325z"/>
	<path fill="#052576" d="M54.48,63.834c-0.227,0.833-0.758,1.526-1.508,1.96c-0.49,0.284-1.045,0.434-1.611,0.434
		c-1.15,0-2.223-0.62-2.797-1.612c-0.434-0.75-0.547-1.618-0.324-2.45c0.223-0.834,0.762-1.529,1.507-1.964
		c0.489-0.284,1.044-0.433,1.611-0.433c1.151,0,2.224,0.62,2.798,1.617C54.588,62.13,54.705,63,54.48,63.834z"/>
	<path fill-rule="evenodd" clip-rule="evenodd" fill="#0C1748" d="M128.896,28.846c-0.014-2.56-0.465-4.832-1.709-6.895
		c-3.282-5.426-10.486-5.394-13.729,0.053c-0.93,1.553-1.426,3.25-1.591,5.041c-0.309,3.213,0.148,6.282,2.013,8.997
		c3.229,4.706,9.637,4.708,12.899,0.027C128.331,33.849,128.863,31.328,128.896,28.846z M120.66,11.199
		c8.326,0.004,14.303,5.231,15.514,13.54c0.678,4.681,0.346,9.208-1.928,13.466c-3.283,6.16-9.598,8.441-15.316,7.958
		c-8.453-0.711-13.507-6.614-14.555-14.407c-0.475-3.531-0.232-7.045,1.063-10.406C107.922,14.898,113.505,11.193,120.66,11.199z"/>
	<polygon fill-rule="evenodd" clip-rule="evenodd" fill="#0C1748" points="157.567,45.314 149.111,45.314 149.111,10.171 
		139.209,10.171 139.209,3.863 167.399,3.863 167.399,10.087 157.567,10.087 	"/>
	<path fill-rule="evenodd" clip-rule="evenodd" fill="#0C1748" d="M90.041,3.793c-0.053-0.002-0.101-0.002-0.15,0h-0.828v1.009
		c0.025,13.196,0.021,40.49,0.021,40.49h8.592V4.802V3.865V3.793H90.041z"/>
	<path fill-rule="evenodd" clip-rule="evenodd" fill="#0C1748" d="M148.32,60.287c-0.016-0.754-0.137-1.46-0.51-2.101
		c-0.486-0.844-1.189-1.365-2.197-1.399c-1.051-0.03-1.795,0.484-2.32,1.347c-0.293,0.484-0.445,1.024-0.496,1.583
		c-0.1,1.051,0.034,2.059,0.65,2.944c1.059,1.533,3.153,1.519,4.203-0.021C148.139,61.924,148.299,61.113,148.32,60.287z
		 M145.641,54.604c2.664,0,4.607,1.656,5.021,4.301c0.219,1.37,0.163,2.722-0.398,4.014c-0.729,1.667-2.008,2.677-3.8,2.953
		c-1.937,0.3-3.63-0.192-4.919-1.739c-0.724-0.869-1.083-1.909-1.197-3.034c-0.104-1.006-0.051-1.996,0.277-2.958
		C141.389,55.892,143.228,54.604,145.641,54.604z"/>
	<path fill-rule="evenodd" clip-rule="evenodd" fill="#0C1748" d="M99.713,60.26c-0.001,0.855,0.161,1.537,0.516,2.16
		c1.032,1.822,3.408,1.859,4.457,0.049c0.245-0.431,0.414-0.937,0.496-1.428c0.188-1.11,0.055-2.191-0.613-3.145
		c-1.014-1.455-3.022-1.499-4.107-0.095C99.9,58.522,99.705,59.362,99.713,60.26z M107.752,60.265
		c-0.035,1.345-0.317,2.616-1.145,3.69c-1.365,1.775-3.221,2.291-5.342,1.864c-2.185-0.445-3.68-2.2-3.951-4.479
		c-0.166-1.379-0.076-2.729,0.576-3.985c0.894-1.718,2.352-2.583,4.248-2.735c1.012-0.088,1.996,0.064,2.903,0.54
		c1.439,0.76,2.2,2.019,2.521,3.565C107.666,59.229,107.689,59.756,107.752,60.265z"/>
	<path fill-rule="evenodd" clip-rule="evenodd" fill="#0C1748" d="M162.442,65.666h-2.696v-0.331c0-1.719,0.018-3.441-0.012-5.164
		c-0.01-0.508-0.08-1.041-0.252-1.519c-0.367-1.022-1.115-1.644-2.236-1.708c-0.584-0.033-1.168-0.003-1.785-0.003v8.725h-2.68
		V54.903c0.07-0.007,0.154-0.022,0.238-0.022c1.488,0,2.979-0.023,4.471,0.016c0.626,0.017,1.268,0.096,1.869,0.265
		c1.664,0.469,2.537,1.692,2.902,3.307c0.117,0.528,0.164,1.087,0.174,1.627c0.021,1.771,0.007,3.54,0.007,5.31V65.666z"/>
	<path fill-rule="evenodd" clip-rule="evenodd" fill="#0C1748" d="M122.193,54.893h2.686v10.767
		c-0.067,0.007-0.135,0.021-0.195,0.021c-1.512,0-3.021,0.028-4.531-0.019c-0.654-0.017-1.327-0.115-1.953-0.302
		c-1.547-0.461-2.393-1.606-2.768-3.118c-0.14-0.565-0.209-1.158-0.219-1.74c-0.027-1.788-0.01-3.577-0.01-5.362
		c0-0.075,0.006-0.151,0.012-0.241h2.689c0,0.127-0.018,3.76,0.01,5.459c0.008,0.501,0.086,1.019,0.234,1.498
		c0.357,1.13,1.293,1.78,2.48,1.797c0.422,0.005,0.848-0.016,1.268,0.009c0.244,0.007,0.305-0.08,0.3-0.314
		c-0.007-2.692-0.003-5.382-0.003-8.077V54.893z"/>
	<path fill-rule="evenodd" clip-rule="evenodd" fill="#0C1748" d="M88.1,65.68v-2.214c0.113-0.003,0.216-0.014,0.315-0.014
		c0.827-0.003,1.657,0.011,2.481-0.007c0.365-0.007,0.732-0.033,1.084-0.123c1.012-0.253,1.324-1.264,0.602-2.021
		c-0.471-0.499-1.018-0.935-1.554-1.37c-0.739-0.601-1.475-1.197-2.079-1.946c-0.789-0.991-1.086-2.093-0.834-3.345
		c0.23-1.162,0.938-1.883,2.06-2.163c0.614-0.153,1.264-0.225,1.903-0.257c0.855-0.042,1.711-0.012,2.568-0.012
		c0.063,0,0.128,0.012,0.211,0.022v2.201h-0.345c-0.776,0.013-1.556,0.022-2.333,0.048c-0.178,0.003-0.358,0.058-0.53,0.113
		c-0.823,0.285-1.149,1.181-0.642,1.886c0.281,0.385,0.646,0.716,1.006,1.024c0.787,0.695,1.623,1.328,2.387,2.04
		c0.641,0.601,1.119,1.324,1.253,2.217c0.112,0.742,0.06,1.477-0.239,2.181c-0.426,0.981-1.266,1.408-2.241,1.609
		c-0.429,0.093-0.878,0.12-1.317,0.126c-1.143,0.014-2.287,0.004-3.434,0.004H88.1z"/>
	<path fill-rule="evenodd" clip-rule="evenodd" fill="#0C1748" d="M129.959,54.874h2.926v2.049h-2.871
		c-0.021,0.061-0.045,0.086-0.045,0.111c0.013,1.371,0,2.747,0.053,4.12c0.018,0.408,0.17,0.828,0.346,1.203
		c0.426,0.906,1.202,1.273,2.172,1.291c0.355,0.008,0.707,0.003,1.075,0.003v1.971c-0.722,0-1.442,0.058-2.151-0.014
		c-1.176-0.114-2.191-0.617-2.967-1.542c-0.59-0.703-0.885-1.54-1-2.441c-0.045-0.39-0.064-0.784-0.07-1.178
		c-0.004-1.689-0.009-3.383,0.008-5.075c0.006-0.663,0.127-1.319,0.405-1.931c0.384-0.835,0.97-1.429,1.945-1.496
		c0.051-0.006,0.097,0.005,0.175,0.01V54.874z"/>
	<path fill-rule="evenodd" clip-rule="evenodd" fill="#0C1748" d="M112.547,51.03v14.641h-2.709v-0.283
		c0-3.518-0.004-7.036,0.001-10.551c0-0.931,0.22-1.811,0.726-2.604c0.39-0.603,0.911-1.037,1.639-1.178
		C112.311,51.039,112.426,51.039,112.547,51.03z"/>
	<rect x="135.529" y="54.896" fill-rule="evenodd" clip-rule="evenodd" fill="#0C1748" width="2.604" height="10.774"/>
	<rect x="135.518" y="51.313" fill-rule="evenodd" clip-rule="evenodd" fill="#0C1748" width="2.615" height="2.186"/>
</g>
</svg>
