<?xml version="1.0" encoding="utf-8"?>
<!-- Generator: Adobe Illustrator 16.0.0, SVG Export Plug-In . SVG Version: 6.00 Build 0)  -->
<!DOCTYPE svg PUBLIC "-//W3C//DTD SVG 1.1//EN" "http://www.w3.org/Graphics/SVG/1.1/DTD/svg11.dtd">
<svg version="1.1" id="Warstwa_1" xmlns="http://www.w3.org/2000/svg" xmlns:xlink="http://www.w3.org/1999/xlink" x="0px" y="0px"
	 width="167.399px" height="70.556px" viewBox="0 0 167.399 70.556" enable-background="new 0 0 167.399 70.556"
	 xml:space="preserve">
<g>
	<path fill="#0D0D0D" d="M41.563,41.563c-3.473,3.473-9.104,3.473-12.576,0c-3.469-3.471-3.469-9.1,0-12.572
		c3.473-3.473,9.104-3.473,12.576,0S45.036,38.093,41.563,41.563z"/>
	<g>
		<g>
			<path fill="#666666" d="M60.261,31.876c-1.955,0-3.547-1.588-3.547-3.543c0-1.961,1.592-3.551,3.547-3.551
				c1.961,0,3.543,1.59,3.543,3.551C63.804,30.288,62.222,31.876,60.261,31.876z"/>
			<path fill="#666666" d="M55.21,19.839c-1.697,0.982-3.863,0.4-4.846-1.297c-0.975-1.695-0.395-3.863,1.303-4.84
				c1.693-0.98,3.865-0.4,4.846,1.295C57.487,16.694,56.909,18.864,55.21,19.839z"/>
			<path fill="#666666" d="M44.823,11.944c-0.977,1.693-3.148,2.273-4.846,1.295c-1.695-0.979-2.277-3.146-1.295-4.84
				c0.977-1.697,3.148-2.283,4.842-1.301C45.22,8.079,45.802,10.247,44.823,11.944z"/>
			<path fill="#666666" d="M31.876,10.296c0,1.959-1.59,3.547-3.545,3.547c-1.961,0-3.545-1.588-3.545-3.547
				c0-1.961,1.584-3.547,3.545-3.547C30.286,6.749,31.876,8.335,31.876,10.296z"/>
			<path fill="#666666" d="M19.839,15.347c0.98,1.691,0.4,3.861-1.297,4.844c-1.695,0.977-3.863,0.395-4.842-1.305
				c-0.982-1.691-0.398-3.863,1.301-4.838C16.692,13.069,18.86,13.649,19.839,15.347z"/>
			<path fill="#666666" d="M11.944,25.729c1.695,0.98,2.273,3.148,1.295,4.848c-0.979,1.691-3.146,2.275-4.842,1.295
				c-1.695-0.977-2.279-3.145-1.297-4.842C8.079,25.335,10.247,24.755,11.944,25.729z"/>
			<path fill="#666666" d="M10.294,38.677c1.961,0,3.545,1.592,3.545,3.547c0,1.959-1.584,3.545-3.545,3.545
				c-1.955,0-3.543-1.586-3.543-3.547C6.751,40.269,8.339,38.677,10.294,38.677z"/>
			<path fill="#666666" d="M15.341,50.714c1.697-0.98,3.863-0.396,4.844,1.299c0.982,1.691,0.398,3.859-1.297,4.838
				c-1.693,0.984-3.863,0.398-4.84-1.299C13.067,53.858,13.647,51.692,15.341,50.714z"/>
			<path fill="#666666" d="M25.729,58.612c0.979-1.695,3.15-2.279,4.844-1.299c1.697,0.98,2.277,3.148,1.303,4.846
				c-0.984,1.693-3.148,2.273-4.85,1.297C25.333,62.476,24.753,60.308,25.729,58.612z"/>
			<path fill="#666666" d="M38.679,60.255c0-1.953,1.588-3.541,3.543-3.541c1.961,0,3.547,1.588,3.547,3.541
				c0,1.963-1.586,3.551-3.547,3.551C40.267,63.806,38.679,62.216,38.679,60.255z"/>
			<path fill="#666666" d="M50.716,55.212c-0.982-1.697-0.4-3.867,1.297-4.848c1.693-0.975,3.861-0.391,4.842,1.303
				c0.979,1.695,0.4,3.861-1.303,4.842C53.858,57.487,51.692,56.905,50.716,55.212z"/>
			<path fill="#666666" d="M58.612,44.823c-1.695-0.98-2.277-3.148-1.297-4.842c0.98-1.699,3.148-2.273,4.844-1.301
				c1.695,0.979,2.277,3.146,1.297,4.846C62.478,45.22,60.31,45.802,58.612,44.823z"/>
		</g>
	</g>
	<g>
		<g>
			<g>
				<g>
					<path fill="#999999" d="M56.151,35.222c0,1.539-1.258,2.795-2.801,2.795c-1.537,0-2.791-1.256-2.791-2.795
						c0-1.541,1.254-2.797,2.791-2.797C54.894,32.425,56.151,33.681,56.151,35.222z"/>
				</g>
			</g>
			<g>
				<g>
					<path fill="#999999" d="M52.302,28.612c-0.424,0.24-0.91,0.379-1.396,0.379c-0.99,0-1.924-0.541-2.422-1.4
						c-0.771-1.334-0.314-3.053,1.021-3.822c0.426-0.244,0.906-0.371,1.398-0.371c0.994,0,1.924,0.537,2.42,1.395
						C54.097,26.124,53.636,27.837,52.302,28.612z"/>
				</g>
			</g>
			<g>
				<g>
					<path fill="#999999" d="M46.688,20.987c-0.504,0.871-1.428,1.402-2.426,1.402c-0.488,0-0.969-0.127-1.398-0.377
						c-1.33-0.766-1.789-2.482-1.02-3.816c0.5-0.859,1.426-1.396,2.422-1.396c0.49,0,0.975,0.131,1.393,0.375
						c0.652,0.373,1.111,0.977,1.307,1.695C47.157,19.597,47.06,20.347,46.688,20.987z"/>
				</g>
			</g>
			<g>
				<g>
					<path fill="#999999" d="M38.015,17.2c0,1.543-1.256,2.795-2.795,2.795s-2.795-1.252-2.795-2.795
						c0-1.541,1.252-2.793,2.795-2.793C36.759,14.407,38.015,15.659,38.015,17.2z"/>
				</g>
			</g>
			<g>
				<g>
					<path fill="#999999" d="M28.89,20.372c-0.193,0.725-0.654,1.326-1.301,1.697c-0.426,0.25-0.908,0.377-1.398,0.377
						c-0.996,0-1.926-0.535-2.418-1.396c-0.775-1.338-0.311-3.049,1.021-3.822c0.42-0.238,0.902-0.371,1.393-0.371
						c1,0,1.924,0.537,2.422,1.396C28.985,18.899,29.079,19.655,28.89,20.372z"/>
				</g>
				<g>
					<path fill="#999999" d="M22.292,25.565c0.195,0.717,0.098,1.477-0.273,2.119c-0.506,0.861-1.43,1.4-2.426,1.4
						c-0.492,0-0.971-0.129-1.396-0.373c-0.646-0.377-1.107-0.979-1.303-1.703c-0.191-0.721-0.092-1.469,0.281-2.123
						c0.496-0.857,1.426-1.395,2.422-1.395c0.486,0,0.969,0.131,1.393,0.375C21.64,24.237,22.101,24.845,22.292,25.565z"/>
				</g>
			</g>
			<g>
				<path fill="#999999" d="M22.071,42.968c0.768,1.332,0.313,3.043-1.025,3.82c-0.422,0.242-0.906,0.371-1.395,0.371
					c-0.994,0-1.924-0.533-2.424-1.398c-0.768-1.336-0.311-3.045,1.025-3.816c0.422-0.246,0.906-0.375,1.396-0.375
					C20.642,41.569,21.575,42.101,22.071,42.968z"/>
				<path fill="#999999" d="M17.2,38.126c-1.541,0-2.799-1.252-2.799-2.795c0-1.539,1.258-2.791,2.799-2.791
					c1.539,0,2.795,1.252,2.795,2.791C19.995,36.874,18.739,38.126,17.2,38.126z"/>
				<path fill="#999999" d="M28.71,52.358c-0.5,0.861-1.43,1.398-2.428,1.398c-0.484,0-0.969-0.135-1.393-0.379
					c-0.646-0.373-1.107-0.979-1.303-1.693c-0.189-0.721-0.092-1.477,0.277-2.123c0.502-0.857,1.426-1.398,2.428-1.398
					c0.486,0,0.969,0.131,1.391,0.373C29.021,49.308,29.479,51.021,28.71,52.358z"/>
			</g>
			<g>
				<path fill="#999999" d="M38.13,53.353c-0.004,1.539-1.26,2.791-2.795,2.791c-1.543,0-2.795-1.252-2.795-2.791
					c0-1.541,1.252-2.793,2.795-2.793C36.87,50.56,38.126,51.812,38.13,53.353z"/>
				<path fill="#999999" d="M45.763,53.321c-0.428,0.248-0.906,0.379-1.395,0.379c-0.998,0-1.924-0.533-2.426-1.396
					c-0.771-1.336-0.311-3.047,1.023-3.82c0.424-0.248,0.908-0.375,1.398-0.375c0.994,0,1.922,0.531,2.422,1.396
					C47.556,50.843,47.097,52.554,45.763,53.321z"/>
			</g>
			<g>
				<path fill="#999999" d="M53.382,45.659c-0.498,0.869-1.43,1.4-2.422,1.4c-0.49,0-0.975-0.131-1.398-0.373
					c-1.336-0.77-1.793-2.482-1.023-3.818c0.496-0.863,1.43-1.396,2.424-1.396c0.486,0,0.973,0.127,1.391,0.375
					C53.69,42.618,54.153,44.327,53.382,45.659z"/>
			</g>
		</g>
	</g>
	<g>
		<g>
			<g>
				<path fill="#262626" d="M66.185,50.405c0.225,0.834,0.109,1.701-0.318,2.449c-0.578,0.994-1.652,1.617-2.807,1.617
					c-0.555,0-1.115-0.15-1.604-0.434c-0.75-0.434-1.285-1.125-1.506-1.963c-0.225-0.834-0.109-1.701,0.322-2.449
					c0.572-0.996,1.645-1.613,2.799-1.613c0.564,0,1.117,0.148,1.607,0.438C65.431,48.87,65.96,49.569,66.185,50.405z"/>
				<path fill="#262626" d="M70.558,35.208c0,1.777-1.453,3.229-3.232,3.229s-3.229-1.451-3.229-3.229s1.449-3.229,3.229-3.229
					S70.558,33.431,70.558,35.208z"/>
			</g>
			<g>
				<path fill="#262626" d="M54.362,6.653c0.221,0.832,0.109,1.703-0.324,2.449c-0.576,0.996-1.648,1.613-2.803,1.613
					c-0.561,0-1.117-0.15-1.611-0.434c-1.539-0.889-2.068-2.867-1.178-4.408c0.574-0.996,1.646-1.617,2.803-1.617
					c0.559,0,1.117,0.15,1.604,0.436C53.604,5.124,54.136,5.819,54.362,6.653z"/>
				<path fill="#262626" d="M64.616,21.989c-0.498,0.285-1.051,0.434-1.615,0.434c-1.152,0-2.227-0.623-2.801-1.615
					c-0.43-0.75-0.543-1.619-0.324-2.451c0.225-0.83,0.756-1.527,1.506-1.957c0.492-0.285,1.049-0.434,1.613-0.434
					c1.152,0,2.225,0.619,2.797,1.613C66.683,19.12,66.151,21.101,64.616,21.989z"/>
			</g>
			<g>
				<path fill="#262626" d="M38.437,3.228c0,1.781-1.447,3.23-3.23,3.23c-0.863,0-1.67-0.336-2.283-0.945
					c-0.609-0.611-0.941-1.42-0.941-2.285c0-1.775,1.445-3.227,3.225-3.227C36.989,0.001,38.437,1.452,38.437,3.228z"/>
			</g>
			<g>
				<path fill="#262626" d="M22.313,8.396c-0.23,0.83-0.76,1.529-1.506,1.955c-0.494,0.289-1.051,0.438-1.609,0.438
					c-1.154,0-2.23-0.617-2.799-1.615c-0.436-0.748-0.551-1.617-0.326-2.449c0.221-0.836,0.754-1.533,1.502-1.961
					c0.492-0.285,1.049-0.432,1.613-0.432c1.152,0,2.225,0.615,2.797,1.611C22.423,6.69,22.536,7.562,22.313,8.396z"/>
			</g>
			<g>
				<path fill="#262626" d="M10.284,20.929c-0.578,0.994-1.65,1.615-2.803,1.615c-0.561,0-1.111-0.15-1.607-0.434
					c-0.748-0.432-1.281-1.127-1.506-1.959c-0.225-0.83-0.113-1.703,0.324-2.451c0.576-0.998,1.646-1.615,2.797-1.615
					c0.563,0,1.123,0.148,1.611,0.432c0.748,0.43,1.285,1.127,1.502,1.961C10.831,19.31,10.714,20.181,10.284,20.929z"/>
				<path fill="#262626" d="M6.456,35.351c0,1.777-1.447,3.225-3.225,3.225H3.228c-1.783,0-3.229-1.447-3.229-3.225
					c0-1.781,1.445-3.229,3.229-3.229C5.009,32.122,6.456,33.569,6.456,35.351z"/>
			</g>
			<g>
				<path fill="#262626" d="M10.356,49.747c0.889,1.543,0.357,3.518-1.184,4.412c-0.49,0.281-1.053,0.432-1.611,0.432
					c-1.154,0-2.225-0.619-2.801-1.613c-0.891-1.541-0.359-3.523,1.184-4.41c0.486-0.285,1.051-0.438,1.609-0.438
					C8.704,48.13,9.78,48.751,10.356,49.747z"/>
				<path fill="#262626" d="M22.106,64.679c-0.572,0.998-1.645,1.619-2.793,1.619c-0.568,0-1.123-0.154-1.615-0.438
					c-1.543-0.889-2.074-2.865-1.18-4.41c0.574-0.992,1.645-1.617,2.795-1.617c0.566,0,1.123,0.158,1.617,0.439
					c0.744,0.43,1.279,1.125,1.504,1.955C22.653,63.06,22.544,63.935,22.106,64.679z"/>
			</g>
			<g>
				<path fill="#262626" d="M38.573,67.325c0,0.863-0.332,1.672-0.945,2.283c-0.609,0.611-1.416,0.947-2.279,0.947
					s-1.68-0.336-2.287-0.947s-0.943-1.42-0.943-2.283s0.336-1.674,0.943-2.285c0.611-0.607,1.424-0.943,2.287-0.943
					C37.128,64.097,38.573,65.55,38.573,67.325z"/>
				<path fill="#262626" d="M54.481,63.831c-0.229,0.832-0.76,1.529-1.504,1.961c-0.494,0.283-1.049,0.436-1.613,0.436
					c-1.154,0-2.227-0.621-2.799-1.613c-0.434-0.75-0.547-1.619-0.326-2.451c0.225-0.836,0.762-1.529,1.51-1.965
					c0.488-0.283,1.045-0.434,1.613-0.434c1.148,0,2.219,0.623,2.793,1.619C54.591,62.126,54.706,62.999,54.481,63.831z"/>
			</g>
		</g>
	</g>
	<g>
		<g>
			<g>
				<path fill-rule="evenodd" clip-rule="evenodd" fill="#0D0D0D" d="M120.661,11.2c8.326,0.002,14.303,5.23,15.514,13.537
					c0.68,4.682,0.346,9.207-1.926,13.469c-3.285,6.16-9.6,8.439-15.316,7.953c-8.455-0.709-13.51-6.613-14.557-14.402
					c-0.475-3.535-0.234-7.045,1.064-10.406C107.921,14.897,113.509,11.194,120.661,11.2z M128.897,28.843
					c-0.012-2.559-0.465-4.834-1.711-6.893c-3.277-5.426-10.486-5.393-13.725,0.051c-0.93,1.553-1.428,3.252-1.59,5.043
					c-0.313,3.213,0.146,6.283,2.014,8.996c3.225,4.705,9.635,4.709,12.896,0.029C128.333,33.849,128.864,31.327,128.897,28.843z"/>
				<path fill-rule="evenodd" clip-rule="evenodd" fill="#0D0D0D" d="M157.565,45.313c-2.91,0-5.629,0-8.455,0
					c0-11.709,0-23.375,0-35.143c-3.344,0-6.584,0-9.9,0c0-2.154,0-4.207,0-6.309c9.414,0,18.766,0,28.189,0c0,2.064,0,4.09,0,6.225
					c-3.221,0-6.467,0-9.834,0C157.565,21.876,157.565,33.569,157.565,45.313z"/>
				<path fill-rule="evenodd" clip-rule="evenodd" fill="#0D0D0D" d="M90.044,3.788c-0.057,0-0.104,0-0.15,0h-0.83v1.01
					c0.023,13.201,0.021,40.492,0.021,40.492c1.051,0,6.066,0,8.59,0c0-13.508,0-26.955,0-40.492c0-0.311,0-0.623,0-0.934V3.788
					H90.044z"/>
			</g>
			<g>
				<path fill-rule="evenodd" clip-rule="evenodd" fill="#0D0D0D" d="M145.64,54.603c2.664,0,4.607,1.656,5.021,4.301
					c0.221,1.371,0.164,2.723-0.396,4.016c-0.73,1.668-2.01,2.676-3.801,2.953c-1.936,0.299-3.631-0.193-4.92-1.74
					c-0.723-0.867-1.084-1.908-1.199-3.035c-0.1-1.008-0.049-1.994,0.281-2.957C141.388,55.892,143.226,54.603,145.64,54.603z
					 M148.321,60.284c-0.018-0.756-0.139-1.459-0.512-2.098c-0.484-0.844-1.189-1.367-2.197-1.4
					c-1.051-0.031-1.795,0.484-2.32,1.348c-0.293,0.482-0.445,1.021-0.496,1.578c-0.098,1.053,0.035,2.061,0.65,2.949
					c1.063,1.535,3.156,1.518,4.201-0.02C148.14,61.923,148.302,61.11,148.321,60.284z"/>
				<path fill-rule="evenodd" clip-rule="evenodd" fill="#0D0D0D" d="M107.753,60.263c-0.037,1.344-0.32,2.617-1.145,3.693
					c-1.367,1.773-3.221,2.293-5.342,1.861c-2.186-0.443-3.68-2.199-3.955-4.479c-0.162-1.381-0.074-2.729,0.582-3.986
					c0.889-1.719,2.348-2.58,4.244-2.738c1.012-0.086,1.996,0.068,2.902,0.543c1.441,0.762,2.201,2.018,2.52,3.564
					C107.667,59.228,107.69,59.755,107.753,60.263z M99.714,60.257c-0.004,0.859,0.158,1.537,0.516,2.162
					c1.031,1.822,3.406,1.861,4.455,0.049c0.248-0.432,0.416-0.938,0.498-1.428c0.189-1.113,0.053-2.193-0.613-3.146
					c-1.014-1.457-3.021-1.498-4.109-0.096C99.899,58.521,99.704,59.362,99.714,60.257z"/>
				<path fill-rule="evenodd" clip-rule="evenodd" fill="#0D0D0D" d="M162.442,65.665c-0.904,0-1.777,0-2.695,0
					c0-0.109,0-0.219,0-0.332c0-1.719,0.016-3.441-0.014-5.164c-0.012-0.508-0.08-1.041-0.252-1.52
					c-0.369-1.021-1.113-1.645-2.238-1.707c-0.582-0.031-1.166-0.002-1.785-0.002c0,2.91,0,5.813,0,8.725c-0.904,0-1.779,0-2.68,0
					c0-3.578,0-7.162,0-10.766c0.072-0.008,0.16-0.02,0.242-0.02c1.486,0,2.979-0.021,4.467,0.012c0.627,0.02,1.27,0.1,1.873,0.268
					c1.664,0.469,2.533,1.691,2.9,3.307c0.117,0.531,0.164,1.086,0.174,1.629c0.023,1.77,0.008,3.539,0.008,5.307
					C162.442,65.479,162.442,65.556,162.442,65.665z"/>
				<path fill-rule="evenodd" clip-rule="evenodd" fill="#0D0D0D" d="M122.196,54.892c0.914,0,1.787,0,2.684,0
					c0,3.59,0,7.168,0,10.768c-0.068,0.006-0.135,0.02-0.193,0.02c-1.512,0-3.021,0.029-4.531-0.02
					c-0.658-0.016-1.328-0.115-1.955-0.303c-1.549-0.459-2.393-1.605-2.768-3.117c-0.139-0.566-0.209-1.158-0.217-1.742
					c-0.027-1.785-0.01-3.574-0.01-5.361c0-0.076,0.006-0.152,0.01-0.238c0.896,0,1.777,0,2.689,0c0,0.127-0.018,3.756,0.01,5.457
					c0.01,0.5,0.088,1.02,0.236,1.498c0.355,1.131,1.291,1.781,2.477,1.795c0.424,0.008,0.848-0.012,1.27,0.012
					c0.244,0.008,0.305-0.08,0.301-0.313c-0.006-2.697-0.002-5.385-0.002-8.08C122.196,55.151,122.196,55.04,122.196,54.892z"/>
				<path fill-rule="evenodd" clip-rule="evenodd" fill="#0D0D0D" d="M88.099,65.679c0-0.75,0-1.465,0-2.215
					c0.115-0.002,0.217-0.012,0.318-0.012c0.824-0.002,1.656,0.01,2.48-0.006c0.365-0.008,0.734-0.035,1.084-0.123
					c1.012-0.254,1.324-1.266,0.602-2.023c-0.471-0.5-1.016-0.934-1.555-1.373c-0.738-0.6-1.473-1.197-2.08-1.945
					c-0.785-0.99-1.084-2.09-0.832-3.344c0.23-1.16,0.938-1.885,2.059-2.164c0.617-0.154,1.266-0.223,1.904-0.254
					c0.854-0.043,1.713-0.012,2.566-0.012c0.064,0,0.129,0.012,0.213,0.02c0,0.73,0,1.443,0,2.203c-0.121,0-0.23,0-0.344,0
					c-0.777,0.012-1.559,0.021-2.336,0.045c-0.174,0.006-0.357,0.059-0.527,0.115c-0.824,0.285-1.15,1.184-0.643,1.885
					c0.279,0.385,0.646,0.719,1.006,1.025c0.787,0.695,1.623,1.328,2.385,2.039c0.643,0.6,1.121,1.326,1.256,2.219
					c0.111,0.744,0.059,1.479-0.24,2.178c-0.424,0.984-1.266,1.412-2.24,1.613c-0.43,0.092-0.877,0.117-1.318,0.127
					c-1.145,0.014-2.287,0.002-3.434,0.002C88.323,65.679,88.222,65.679,88.099,65.679z"/>
				<path fill-rule="evenodd" clip-rule="evenodd" fill="#0D0D0D" d="M129.962,54.874c1.002,0,1.947,0,2.924,0
					c0,0.686,0,1.352,0,2.047c-0.967,0-1.922,0-2.871,0c-0.021,0.061-0.045,0.084-0.045,0.111c0.012,1.373,0,2.748,0.055,4.117
					c0.016,0.408,0.168,0.83,0.348,1.207c0.424,0.908,1.199,1.273,2.168,1.289c0.355,0.01,0.707,0.002,1.076,0.002
					c0,0.691,0,1.338,0,1.973c-0.725,0-1.443,0.059-2.15-0.014c-1.178-0.115-2.193-0.615-2.967-1.543
					c-0.59-0.699-0.887-1.537-1.002-2.441c-0.045-0.389-0.063-0.783-0.068-1.176c-0.004-1.691-0.01-3.387,0.006-5.074
					c0.008-0.664,0.129-1.322,0.404-1.934c0.387-0.834,0.969-1.426,1.945-1.494c0.053-0.008,0.098,0.002,0.178,0.012
					C129.962,52.915,129.962,53.872,129.962,54.874z"/>
				<path fill-rule="evenodd" clip-rule="evenodd" fill="#0D0D0D" d="M112.55,51.028c0,4.896,0,9.764,0,14.643
					c-0.902,0-1.789,0-2.711,0c0-0.098,0-0.191,0-0.283c0-3.52-0.008-7.037,0-10.553c0-0.93,0.221-1.813,0.725-2.602
					c0.389-0.605,0.912-1.039,1.639-1.178C112.312,51.038,112.427,51.038,112.55,51.028z"/>
				<path fill-rule="evenodd" clip-rule="evenodd" fill="#0D0D0D" d="M138.136,65.671c-0.875,0-1.73,0-2.605,0
					c0-3.592,0-7.174,0-10.779c0.869,0,1.729,0,2.605,0C138.136,58.481,138.136,62.06,138.136,65.671z"/>
				<path fill-rule="evenodd" clip-rule="evenodd" fill="#0D0D0D" d="M135.519,53.495c0-0.732,0-1.441,0-2.184
					c0.441,0,0.869,0,1.297,0c0.434,0,0.859,0,1.32,0c0,0.73,0,1.441,0,2.184C137.274,53.495,136.407,53.495,135.519,53.495z"/>
			</g>
		</g>
	</g>
</g>
</svg>
