<?xml version="1.0" encoding="utf-8"?>
<!-- Generator: Adobe Illustrator 16.0.0, SVG Export Plug-In . SVG Version: 6.00 Build 0)  -->
<!DOCTYPE svg PUBLIC "-//W3C//DTD SVG 1.1//EN" "http://www.w3.org/Graphics/SVG/1.1/DTD/svg11.dtd">
<svg version="1.1" id="Warstwa_1" xmlns="http://www.w3.org/2000/svg" xmlns:xlink="http://www.w3.org/1999/xlink" x="0px" y="0px"
	 width="288.471px" height="39.551px" viewBox="0 0 288.471 39.551" enable-background="new 0 0 288.471 39.551"
	 xml:space="preserve">
<g>
	<g>
		<path fill="#404041" d="M142.02,0.313v15.623h-1.272V8.012c0-2.052,0.112-5.49,0.089-5.49h-0.023
			c-0.021,0-0.691,1.205-1.338,2.366l-4.152,7.21h-0.691l-4.152-7.21c-0.647-1.161-1.317-2.366-1.339-2.366h-0.022
			c-0.023,0,0.09,3.438,0.09,5.49v7.924h-1.273V0.313h1.206l4.129,7.119c1.405,2.39,1.674,3.08,1.696,3.08h0.023
			c0.021,0,0.291-0.69,1.695-3.08l4.129-7.119H142.02z"/>
		<path fill="#404041" d="M146.393,15.936V0.313h1.272v15.623H146.393z"/>
		<path fill="#404041" d="M164.494,0.313v15.623h-1.206L155.32,5.2c-1.338-1.831-2.008-2.835-2.032-2.835h-0.021
			c-0.023,0,0.044,1.831,0.044,4.063v9.508h-1.271V0.313h1.205l7.946,10.69c1.228,1.651,2.03,2.768,2.053,2.768h0.023
			c0.021,0-0.067-1.874-0.067-3.974V0.313H164.494z"/>
		<path fill="#404041" d="M168.845,15.936V0.313h1.272v15.623H168.845z"/>
		<path fill="#404041" d="M183.062,4.485c-0.333-2.075-2.053-3.325-4.239-3.325c-2.3,0-3.974,1.094-3.974,2.924
			c0,1.897,2.323,2.499,4.441,3.08c2.166,0.604,5.268,1.474,5.268,4.62c0,2.566-2.231,4.465-5.603,4.465
			c-3.37,0-5.423-2.009-5.758-4.575l1.227-0.335c0.179,2.008,1.786,3.727,4.576,3.727c2.589,0,4.217-1.383,4.217-3.259
			c0-2.59-2.945-3.081-5.132-3.728c-1.786-0.513-4.554-1.272-4.554-3.95c0-2.433,2.254-4.129,5.334-4.129
			c2.791,0,4.978,1.629,5.447,4.15L183.062,4.485z"/>
		<path fill="#404041" d="M197.549,0.313V1.54h-5.357v14.396h-1.295V1.54h-5.334V0.313H197.549z"/>
		<path fill="#404041" d="M210.604,14.708v1.228h-10.289V0.313h10.156V1.54h-8.884v5.445h7.165V8.17h-7.165v6.538H210.604z"/>
		<path fill="#404041" d="M223.348,15.936l-3.726-6.093c-0.336,0.046-0.693,0.067-1.049,0.067h-3.17v6.025h-1.272V0.313h4.442
			c3.57,0,5.735,1.852,5.735,4.82c0,2.277-1.249,3.84-3.392,4.465l3.883,6.338H223.348z M218.639,8.771
			c2.835,0,4.352-1.495,4.352-3.639c0-2.298-1.673-3.593-4.352-3.593h-3.236v7.231H218.639z"/>
		<path fill="#404041" d="M236.583,4.485c-0.335-2.075-2.054-3.325-4.242-3.325c-2.299,0-3.972,1.094-3.972,2.924
			c0,1.897,2.32,2.499,4.441,3.08c2.165,0.604,5.268,1.474,5.268,4.62c0,2.566-2.233,4.465-5.604,4.465
			c-3.369,0-5.423-2.009-5.758-4.575l1.229-0.335c0.178,2.008,1.786,3.727,4.576,3.727c2.588,0,4.218-1.383,4.218-3.259
			c0-2.59-2.947-3.081-5.135-3.728c-1.785-0.513-4.553-1.272-4.553-3.95c0-2.433,2.255-4.129,5.335-4.129
			c2.79,0,4.977,1.629,5.446,4.15L236.583,4.485z"/>
		<path fill="#404041" d="M251.068,0.313V1.54h-5.356v14.396h-1.294V1.54h-5.335V0.313H251.068z"/>
		<path fill="#404041" d="M272.963,0.313l-5.424,15.623h-1.071l-2.678-8.504c-0.759-2.365-0.87-3.147-0.895-3.147h-0.021
			c-0.021,0-0.179,0.782-0.916,3.147l-2.656,8.504h-1.092l-5.424-15.623h1.316l3.974,11.429c0.424,1.315,0.647,2.208,0.668,2.208
			h0.023c0.022,0,0.201-0.893,0.625-2.208l2.947-9.153h1.071l2.947,9.153c0.424,1.315,0.602,2.208,0.625,2.208h0.022
			c0.022,0,0.245-0.893,0.692-2.208l3.951-11.429H272.963z"/>
		<path fill="#404041" d="M281.846,0c4.485,0,8.125,3.414,8.125,8.124s-3.639,8.125-8.125,8.125c-4.486,0-8.102-3.415-8.102-8.125
			S277.36,0,281.846,0z M281.846,14.998c3.795,0,6.809-2.812,6.809-6.874c0-4.107-3.014-6.874-6.809-6.874
			c-3.817,0-6.786,2.767-6.786,6.874C275.06,12.187,278.029,14.998,281.846,14.998z"/>
		<path fill="#8BC53F" d="M139.675,24.672l-9.842,12.032c-0.625,0.758-1.095,1.203-1.095,1.227l0.023,0.022
			c0.022,0,0.825-0.067,1.897-0.067h9.017v1.228h-12.588v-1.183l9.932-12.075c0.424-0.514,1.093-1.138,1.093-1.161l-0.022-0.022
			c-0.022,0-0.714,0.046-1.897,0.046h-8.884V23.49h12.365V24.672z"/>
		<path fill="#8BC53F" d="M143.201,39.113V23.49h1.272v15.623H143.201z"/>
		<path fill="#8BC53F" d="M159.137,37.886v1.228h-10.289V23.49h10.155v1.228h-8.883v5.445h7.164v1.184h-7.164v6.539H159.137z"/>
		<path fill="#8BC53F" d="M172.596,37.886v1.228h-9.932V23.49h1.272v14.396H172.596z"/>
		<path fill="#8BC53F" d="M185.519,37.886v1.228h-10.291V23.49h10.156v1.228H176.5v5.445h7.165v1.184H176.5v6.539H185.519z"/>
		<path fill="#8BC53F" d="M201.499,23.49v15.623h-1.206l-7.968-10.735c-1.339-1.831-2.008-2.835-2.03-2.835h-0.023
			c-0.023,0,0.045,1.83,0.045,4.063v9.508h-1.274V23.49h1.206l7.946,10.69c1.229,1.651,2.031,2.768,2.053,2.768h0.023
			c0.022,0-0.066-1.874-0.066-3.974V23.49H201.499z"/>
		<path fill="#8BC53F" d="M205.85,39.113V23.49h1.272v15.623H205.85z"/>
	</g>
	<g>
		<path fill="#404041" d="M56.618,39.149c4.136,0,7.377-3.13,7.377-7.129V17.912L49.858,34.427
			C50.653,37.766,52.681,39.149,56.618,39.149z"/>
		<path fill="#404041" d="M57.69,0.541c-2.34,0-4.588,1.143-6.332,3.219L29.331,29.879c-1.317,1.417-2.674,3.589-1.674,5.886
			c0.893,2.045,3.387,3.527,5.931,3.527c1.355,0,3.318-0.419,4.975-2.423L63.995,7.51V6.245C63.995,2.675,60.788,0.541,57.69,0.541z
			"/>
		<path fill="#404041" d="M37.895,4.612c-1.104-2.566-3.944-4.359-6.904-4.359c-2.417,0-4.697,1.175-6.597,3.398L4.185,27.334
			c-2.47,2.351-3.271,5.041-2.258,7.574c1.076,2.69,3.977,4.643,6.9,4.643c1.896,0,3.699-0.811,5.219-2.347L36.39,11.026
			C38.813,8.467,38.546,6.126,37.895,4.612z"/>
		<path fill="#404041" d="M79.591,0.253c-4.034,0-7.314,3.253-7.314,7.253c0,3.02,1.844,5.839,4.459,7.058l14.22-14.311H79.591z"/>
		<path fill="#404041" d="M72.155,31.798c0,3.814,3.035,6.951,6.873,7.232l7.433-7.532c5.187-5.246,8.763-8.838,11.374-11.449
			c1.424-1.422,2.563-2.554,3.517-3.506c1.552-1.547,2.621-2.612,3.662-3.672c2.152-2.152,2.791-5.51,1.606-8.372
			c-1.065-2.568-3.324-4.094-6.241-4.235l-25.545,25.96C73.612,27.336,72.155,29.205,72.155,31.798z"/>
		<path fill="#8BC53F" d="M99.219,24.709c-1.933,1.935-4.582,4.593-8.421,8.477c-1.005,1.017-2.094,2.118-3.27,3.311
			c-0.877,0.89-1.799,1.825-2.779,2.821c0.288-0.125,15.944-6.939,19.505-12.705c0,0-1.557,6.666-11.231,10.624
			c0,0,12.368,8.959,14.552-15C107.574,22.236,103.413,22.874,99.219,24.709z"/>
	</g>
</g>
</svg>
