<?xml version="1.0" encoding="utf-8"?>
<!-- Generator: Adobe Illustrator 16.0.0, SVG Export Plug-In . SVG Version: 6.00 Build 0)  -->
<!DOCTYPE svg PUBLIC "-//W3C//DTD SVG 1.1//EN" "http://www.w3.org/Graphics/SVG/1.1/DTD/svg11.dtd">
<svg version="1.1" id="Warstwa_1" xmlns="http://www.w3.org/2000/svg" xmlns:xlink="http://www.w3.org/1999/xlink" x="0px" y="0px"
	 width="109.999px" height="133.709px" viewBox="0 0 109.999 133.709" enable-background="new 0 0 109.999 133.709"
	 xml:space="preserve">
<g>
	<path id="XMLID_12_" fill="#7C7C7C" d="M107.97,33.145C96.787,17.928,80.285,7.574,61.896,4.413c-15.896-2.733-32.203,0-46.5,7.711
		C29.727,2.019,46.466-1.954,63.095,0.903C81.903,4.139,97.98,15.764,107.97,33.145z"/>
	<path id="XMLID_11_" fill="#7C7C7C" d="M96.271,117.559c-15.493,12.992-34.906,18.519-54.114,15.214
		C25.174,129.853,10.39,120.451,0,106.092c11.165,12.092,25.948,20.179,42.185,22.973C60.966,132.296,80.361,128.107,96.271,117.559
		z"/>
	<path id="XMLID_10_" fill="#121212" d="M9.232,44.501c4.289,0,7.59,0.462,9.905,1.158c2.259,0.637,4.17,1.969,5.68,3.648
		c1.448,1.738,2.198,3.822,2.198,6.43c0,2.26-0.521,4.229-1.506,5.908c-1.041,1.739-2.49,2.955-4.345,3.824
		c-1.91,0.927-5.213,1.1-9.966,1.1H6.742v9.211c0,1.797-0.059,2.725,0,4.113v6.313H0.776V75.78V55.508V44.501H9.232z M20.529,56.201
		c0-3.417-0.811-5.967-2.492-7.529c-1.681-1.623-4.401-2.434-8.167-2.434c-1.39,0-2.434,0.058-3.127,0.114v18.825h2.896
		c2.376,0,4.285-0.058,5.735-0.521c1.509-0.463,2.723-1.271,3.707-2.837C20.066,60.314,20.529,58.402,20.529,56.201z"/>
	<path id="XMLID_9_" fill="#121212" d="M40.65,44.501v10.368v20.504v10.834h-6.023V75.373V54.869V44.501H40.65z"/>
	<path id="XMLID_8_" fill="#121212" d="M58.626,44.501c3.94,0,7.125,0.231,9.561,0.983c2.431,0.695,4.457,1.738,5.968,3.36
		c1.505,1.68,2.258,3.647,2.258,5.967c0,2.663-0.985,5.039-2.954,6.893c-2.029,1.911-4.925,3.417-8.744,3.939
		c1.678,0.811,4.457,1.912,8.279,7.065c0,0,3.071,4.172,6.895,13.497h-4.752c-0.463-1.911-6.603-19.811-17.898-19.811h-1.796v8.746
		v11.063h-5.906V75.143V54.984V44.501H58.626z M60.306,65.006c1.623,0,3.014-0.579,4.172-0.926c1.217-0.35,2.199-1.159,2.896-1.854
		c0.753-0.696,1.332-1.624,1.738-2.724c0.464-1.16,0.64-2.492,0.64-4.113c0-2.896-0.697-5.099-2.143-6.836
		c-1.452-1.736-4.753-2.315-9.563-2.315H55.44v18.768H60.306z"/>
	<path id="XMLID_7_" fill="#121212" d="M109.913,76.069c-0.346,3.418-1.797,6.024-4.284,7.938c-2.492,1.854-5.619,2.604-9.441,2.199
		c-3.825-0.404-8.863-3.475-11.123-7.183l1.101-1.217c3.126,4.46,5.505,6.199,9.675,6.894c2.779,0.405,5.039-0.23,6.774-1.68
		c1.683-1.391,2.666-3.128,2.841-5.098c0.23-1.972-0.23-3.707-1.449-5.215c-1.216-1.447-3.533-3.128-6.949-5.038
		c-3.012-1.738-5.271-3.188-6.836-4.401c-1.506-1.219-2.605-2.667-3.36-4.404c-0.694-1.737-0.983-3.533-0.751-5.388
		c0.289-2.837,1.506-5.097,3.705-6.777c2.145-1.679,4.75-2.316,7.763-2.025c1.683,0.174,3.187,0.638,4.634,1.332
		c1.447,0.693,2.838,2.026,4.229,3.882l-1.273,1.043c-0.353-0.523-0.755-1.043-1.159-1.507c-1.68-1.972-3.765-3.071-6.254-3.304
		c-2.377-0.29-4.174,0.175-5.391,1.332c-1.271,1.16-1.969,2.492-2.143,4.056c-0.174,1.797,0.348,3.42,1.619,4.866
		c1.221,1.447,3.535,3.129,6.955,5.155c3.243,1.854,5.561,3.359,7.008,4.461c1.506,1.101,2.606,2.489,3.358,4.229
		C109.913,72.015,110.144,73.928,109.913,76.069z"/>
</g>
</svg>
