<?xml version="1.0" encoding="utf-8"?>
<!-- Generator: Adobe Illustrator 16.0.0, SVG Export Plug-In . SVG Version: 6.00 Build 0)  -->
<!DOCTYPE svg PUBLIC "-//W3C//DTD SVG 1.1//EN" "http://www.w3.org/Graphics/SVG/1.1/DTD/svg11.dtd">
<svg version="1.1" id="Warstwa_1" xmlns="http://www.w3.org/2000/svg" xmlns:xlink="http://www.w3.org/1999/xlink" x="0px" y="0px"
	 width="182.653px" height="110.191px" viewBox="0 0 182.653 110.191" enable-background="new 0 0 182.653 110.191"
	 xml:space="preserve">
<g>
	<rect y="65.624" fill="#121212" width="182.653" height="0.792"/>
	<path fill="#121212" d="M59.905,10.078c-2.199,1.809-3.674,3.74-4.425,5.791c-0.751,2.052-1.507,5.822-2.268,11.313
		c-0.762,5.49-1.621,9.861-2.579,13.111c-0.958,3.252-2.625,6.32-5.001,9.207c-2.375,2.887-5.244,5.141-8.604,6.759
		c-3.361,1.618-6.836,2.428-10.427,2.428c-3.887,0-6.796-0.937-8.726-2.813c-1.93-1.875-2.895-4.039-2.895-6.495
		c0-0.782,0.303-1.483,0.91-2.104c0.607-0.621,1.855-1.471,3.744-2.55c1.888-1.079,3.183-1.619,3.885-1.619
		c0.891,0,1.336,0.513,1.336,1.538c0,0.242-0.142,1.16-0.425,2.752c-0.284,1.592-0.425,2.537-0.425,2.833
		c0,1.512,0.431,2.759,1.295,3.744c0.863,0.985,1.957,1.478,3.278,1.478c2.806,0,5.289-1.781,7.447-5.343
		c2.158-3.562,3.676-8.816,4.553-15.765c0.876-6.947,2.03-11.993,3.46-15.137c1.43-3.143,3.514-5.68,6.253-7.609
		c2.738-1.928,5.201-2.893,7.387-2.893C58.3,8.703,59.042,9.161,59.905,10.078 M80.708,48.771c-3.156,3.413-5.977,5.92-8.458,7.519
		c-2.483,1.599-4.992,2.397-7.528,2.397c-2.645,0-4.77-0.864-6.375-2.591c-1.606-1.726-2.408-3.992-2.408-6.799
		c0-1.673,0.385-3.979,1.153-6.921c0.77-2.94,1.154-5.194,1.154-6.759c0-2.51-0.823-3.805-2.469-3.886
		c-0.999-0.081-1.498-0.553-1.498-1.417c0-1.592,0.58-2.388,1.74-2.388l2.712,0.162c2.536,0,4.553-1.241,6.051-3.724
		c1.497-2.482,2.246-5.477,2.246-8.984c0-8.176-4.641-12.264-13.923-12.264c-5.909,0-11.157,1.599-15.744,4.796
		c-4.587,3.197-6.881,6.766-6.881,10.705c0,2.24,1.106,3.926,3.319,5.06c1.052,0.539,1.579,1.2,1.579,1.982
		c0,0.702-1.026,1.505-3.076,2.408c-2.051,0.904-3.454,1.356-4.209,1.356c-1.188,0-2.26-0.775-3.218-2.327
		c-0.958-1.552-1.437-3.325-1.437-5.322c0-5.99,3.036-11.117,9.107-15.38C38.617,2.133,46.023,0,54.766,0
		c7.339,0,13.053,1.579,17.14,4.736c4.088,3.156,6.132,6.988,6.132,11.494c0,2.833-1.127,5.585-3.379,8.256
		c-2.253,2.672-6.672,4.75-13.255,6.233c2.401,1.376,4.148,2.867,5.241,4.472c1.093,1.606,1.64,3.623,1.64,6.051
		c0,1.35-0.142,2.861-0.425,4.533c-0.283,1.674-0.425,2.739-0.425,3.197c0,2.321,0.917,3.48,2.752,3.48
		c2.455,0,5.962-2.778,10.522-8.336V48.771z"/>
	<path fill="#121212" d="M110.942,48.811c-3.427,3.373-6.502,5.863-9.228,7.468c-2.725,1.605-5.734,2.408-9.025,2.408
		c-3.67,0-6.632-1.174-8.884-3.521c-2.253-2.348-3.379-5.438-3.379-9.269c0-5.72,1.983-10.894,5.95-15.522
		c3.966-4.627,8.364-6.94,13.194-6.94c2.509,0,4.519,0.647,6.03,1.942c1.511,1.295,2.267,2.995,2.267,5.1
		c0,5.586-5.937,10.119-17.808,13.6c1.079,5.262,3.898,7.893,8.459,7.893c1.781,0,3.48-0.479,5.1-1.438
		c1.619-0.957,4.061-3.082,7.325-6.375V48.811z M89.734,41.324c6.907-1.943,10.361-5.531,10.361-10.767
		c0-2.59-0.945-3.886-2.833-3.886c-1.781,0-3.48,1.356-5.1,4.068C90.544,33.451,89.734,36.979,89.734,41.324z"/>
	<path fill="#121212" d="M123.408,25.094c1.861-0.485,3.736-0.883,5.625-1.193c1.888-0.311,3.022-0.466,3.4-0.466
		c0.269,0,0.405,0.108,0.405,0.323c0,0.405-0.108,0.822-0.324,1.254c-0.432,1.24-0.647,2.428-0.647,3.56
		c0.004,1.403,0.815,3.319,2.432,5.749c1.617,2.43,2.425,4.684,2.425,6.761c0,4.128-1.977,8.108-5.929,11.939
		c-3.953,3.831-8.048,5.747-12.284,5.747c-1.835,0-3.508-0.486-5.019-1.457c-1.512-0.972-2.267-2.01-2.267-3.116
		c0-0.647,0.749-1.875,2.247-3.684c1.498-1.808,2.57-2.712,3.218-2.712c0.863,0,1.632,1.107,2.307,3.319
		c0.674,2.213,1.834,3.319,3.48,3.319c1.646,0,3.19-0.763,4.634-2.287c1.443-1.525,2.165-3.164,2.165-4.919
		c0.001-1.7-0.916-3.966-2.751-6.799s-3.05-5.206-3.644-7.122c-3.13,5.045-7.097,10.213-11.899,15.5h-0.931v-3.642
		C116.663,38.127,121.114,31.435,123.408,25.094"/>
	<path fill="#121212" d="M167.888,48.811c-3.4,3.374-6.341,5.863-8.823,7.468c-2.483,1.605-4.844,2.408-7.083,2.408
		c-2.321,0-4.203-0.978-5.646-2.935c-1.444-1.955-2.165-4.525-2.165-7.71c0-2.806,0.692-6.511,2.077-11.114l1.717-6.127
		l-3.106,0.162l1.297-6.354l3.848-0.162l3.8-12.628L164.615,9.6l-4.183,14.078l5.715-0.324l-1.337,6.232l-6.278,0.486l-2.696,9.068
		c-0.937,3.152-1.405,5.659-1.405,7.522c0,1.269,0.317,2.302,0.953,3.099c0.635,0.797,1.452,1.194,2.453,1.194
		c1.377,0,2.742-0.438,4.093-1.315c1.351-0.876,3.337-2.705,5.958-5.483V48.811z"/>
	<path fill="#121212" d="M22.323,106.421h7.004c1.204,0,2.049-0.046,2.54-0.138c0.851-0.15,1.571-0.406,2.147-0.766
		c0.576-0.36,1.047-0.884,1.42-1.571c0.373-0.687,0.556-1.479,0.556-2.376c0-1.055-0.268-1.964-0.812-2.742
		c-0.537-0.779-1.283-1.322-2.239-1.637c-0.949-0.314-2.324-0.472-4.111-0.472h-6.506V106.421z M22.323,93.421h6.081
		c1.649,0,2.834-0.111,3.548-0.327c0.949-0.281,1.663-0.753,2.141-1.408c0.478-0.654,0.72-1.473,0.72-2.461
		c0-0.936-0.222-1.76-0.674-2.467c-0.445-0.714-1.086-1.205-1.918-1.467c-0.831-0.262-2.258-0.393-4.274-0.393h-5.623V93.421z
		 M18.592,109.72V81.6h10.552c2.147,0,3.868,0.281,5.171,0.851c1.296,0.569,2.311,1.446,3.044,2.632
		c0.74,1.178,1.106,2.414,1.106,3.711c0,1.197-0.327,2.33-0.975,3.391s-1.63,1.918-2.946,2.572c1.702,0.498,3.011,1.349,3.921,2.553
		c0.917,1.198,1.375,2.619,1.375,4.256c0,1.322-0.281,2.545-0.838,3.678s-1.244,2.004-2.062,2.619
		c-0.818,0.607-1.846,1.073-3.077,1.387c-1.237,0.314-2.749,0.472-4.543,0.472H18.592z"/>
	<rect x="45.574" y="81.6" fill="#121212" width="3.731" height="28.12"/>
	<path fill="#121212" d="M56.229,100.687l3.496-0.313c0.163,1.413,0.549,2.572,1.158,3.481c0.609,0.903,1.551,1.637,2.828,2.2
		c1.276,0.556,2.716,0.838,4.313,0.838c1.42,0,2.67-0.21,3.757-0.636c1.086-0.425,1.892-1.008,2.422-1.747
		c0.53-0.74,0.799-1.545,0.799-2.409c0-0.878-0.255-1.644-0.766-2.304c-0.511-0.655-1.355-1.205-2.533-1.656
		c-0.753-0.288-2.422-0.746-5.007-1.368c-2.586-0.622-4.393-1.204-5.427-1.755c-1.342-0.707-2.336-1.584-2.991-2.625
		c-0.661-1.041-0.989-2.212-0.989-3.502c0-1.426,0.406-2.756,1.211-3.986c0.806-1.236,1.977-2.173,3.528-2.814
		c1.545-0.641,3.267-0.963,5.158-0.963c2.082,0,3.921,0.334,5.512,1.009c1.591,0.667,2.814,1.656,3.672,2.966
		c0.857,1.303,1.316,2.781,1.381,4.432l-3.574,0.274c-0.19-1.774-0.838-3.116-1.944-4.02c-1.106-0.909-2.743-1.361-4.903-1.361
		c-2.252,0-3.895,0.413-4.923,1.237c-1.027,0.824-1.544,1.82-1.544,2.984c0,1.009,0.367,1.84,1.093,2.494
		c0.72,0.648,2.585,1.322,5.609,2.004c3.024,0.687,5.1,1.282,6.226,1.793c1.63,0.752,2.841,1.701,3.62,2.86
		c0.779,1.151,1.165,2.481,1.165,3.986c0,1.499-0.425,2.899-1.283,4.222c-0.858,1.322-2.082,2.351-3.686,3.084
		c-1.604,0.732-3.404,1.1-5.413,1.1c-2.54,0-4.667-0.373-6.382-1.113c-1.722-0.739-3.063-1.852-4.039-3.345
		C56.792,104.248,56.282,102.564,56.229,100.687"/>
	<polygon fill="#121212" points="91.414,109.72 91.414,84.898 82.145,84.898 82.145,81.6 104.413,81.6 104.413,84.898 
		95.145,84.898 95.145,109.72 	"/>
	<path fill="#121212" d="M114.76,94.355h7.986c1.702,0,3.023-0.18,3.98-0.531c2.102-0.77,2.919-2.4,2.919-4.554
		c0-1.329-0.478-2.429-1.44-3.286c-0.962-0.857-2.481-1.283-4.556-1.283h-8.889V94.355z M111.029,109.72V81.599h12.464
		c2.507,0,4.412,0.255,5.714,0.759s2.343,1.395,3.123,2.671c0.779,1.276,1.165,2.69,1.165,4.235c0,4.565-2.201,6.385-6.141,7.734
		c4.701,2.736,6.021,10.947,7.048,12.722h-4.25c-0.437-1.906-2.039-10.921-7.252-12.013c-0.418-0.088-1.106-0.131-2.068-0.131h-6.07
		v12.144H111.029z"/>
	<path fill="#121212" d="M141.264,96.098c0,3.385,0.91,6.049,2.729,7.992c1.82,1.945,4.104,2.92,6.854,2.92
		c2.801,0,5.099-0.982,6.912-2.945c1.807-1.964,2.71-4.752,2.71-8.365c0-2.285-0.386-4.281-1.158-5.983
		c-0.772-1.702-1.905-3.024-3.391-3.96c-1.492-0.937-3.162-1.408-5.014-1.408c-2.632,0-4.896,0.904-6.795,2.711
		S141.264,91.876,141.264,96.098 M137.415,96.032c0-4.66,1.257-8.313,3.764-10.95c2.507-2.639,5.74-3.955,9.707-3.955
		c2.599,0,4.936,0.623,7.024,1.859c2.081,1.238,3.672,2.966,4.765,5.185c1.093,2.213,1.643,4.726,1.643,7.534
		c0,2.848-0.576,5.4-1.728,7.646c-1.152,2.252-2.782,3.954-4.89,5.106c-2.114,1.158-4.392,1.734-6.833,1.734
		c-2.651,0-5.014-0.642-7.102-1.918c-2.082-1.276-3.666-3.018-4.739-5.23C137.952,100.837,137.415,98.5,137.415,96.032z"/>
</g>
</svg>
