<?xml version="1.0" encoding="utf-8"?>
<!-- Generator: Adobe Illustrator 16.0.0, SVG Export Plug-In . SVG Version: 6.00 Build 0)  -->
<!DOCTYPE svg PUBLIC "-//W3C//DTD SVG 1.1//EN" "http://www.w3.org/Graphics/SVG/1.1/DTD/svg11.dtd">
<svg version="1.1" id="Warstwa_1" xmlns="http://www.w3.org/2000/svg" xmlns:xlink="http://www.w3.org/1999/xlink" x="0px" y="0px"
	 width="203.306px" height="61.024px" viewBox="0 0 203.306 61.024" enable-background="new 0 0 203.306 61.024"
	 xml:space="preserve">
<rect x="22.42" y="-52.412" fill-rule="evenodd" clip-rule="evenodd" fill="none" width="192.36" height="104.825"/>
<g>
	<path fill="#3C403F" d="M76.392,3.593c1.435,0,2.622,0.519,3.564,1.557c0.857,0.946,1.285,2.066,1.285,3.36
		c0,1.301-0.452,2.437-1.357,3.409c-0.905,0.972-2.069,1.458-3.492,1.458c-1.427,0-2.594-0.486-3.5-1.458
		c-0.904-0.973-1.357-2.108-1.357-3.409c0-1.288,0.429-2.406,1.285-3.352C73.762,4.114,74.952,3.593,76.392,3.593 M76.388,4.764
		c-0.995,0-1.852,0.368-2.566,1.104c-0.716,0.734-1.072,1.624-1.072,2.668c0,0.673,0.162,1.3,0.489,1.881
		c0.325,0.582,0.767,1.031,1.321,1.348s1.165,0.475,1.828,0.475c0.664,0,1.272-0.158,1.828-0.475
		c0.555-0.316,0.996-0.766,1.322-1.348c0.325-0.581,0.488-1.208,0.488-1.881c0-1.044-0.357-1.934-1.076-2.668
		C78.231,5.132,77.377,4.764,76.388,4.764"/>
	<path fill="#3C403F" d="M88.135,4.85l-0.77,0.796c-0.641-0.622-1.267-0.933-1.878-0.933c-0.389,0-0.722,0.128-0.999,0.385
		s-0.416,0.556-0.416,0.898c0,0.303,0.114,0.59,0.343,0.863c0.229,0.279,0.709,0.607,1.439,0.983
		c0.892,0.463,1.498,0.907,1.817,1.335c0.314,0.433,0.472,0.92,0.472,1.462c0,0.765-0.269,1.412-0.806,1.942
		c-0.536,0.529-1.207,0.795-2.013,0.795c-0.536,0-1.049-0.117-1.538-0.351c-0.487-0.234-0.892-0.557-1.212-0.967l0.753-0.854
		c0.612,0.689,1.26,1.034,1.946,1.034c0.479,0,0.889-0.154,1.226-0.462c0.338-0.308,0.506-0.67,0.506-1.086
		c0-0.342-0.111-0.647-0.334-0.915c-0.223-0.263-0.726-0.594-1.509-0.992c-0.84-0.434-1.411-0.861-1.714-1.283
		s-0.454-0.903-0.454-1.445c0-0.707,0.241-1.294,0.724-1.762s1.092-0.701,1.829-0.701C86.404,3.593,87.267,4.012,88.135,4.85"/>
	<path fill="#3C403F" d="M90.671,0c0.271,0,0.505,0.098,0.697,0.291c0.193,0.194,0.291,0.428,0.291,0.701
		c0,0.269-0.098,0.5-0.291,0.693c-0.192,0.194-0.426,0.291-0.697,0.291c-0.267,0-0.497-0.097-0.69-0.291
		c-0.192-0.193-0.289-0.425-0.289-0.693c0-0.273,0.097-0.507,0.289-0.701C90.174,0.098,90.404,0,90.671,0 M90.076,3.832h1.198v9.305
		h-1.198V3.832z"/>
	<path fill="#3C403F" d="M101.597,10.05l1.009,0.53c-0.33,0.649-0.713,1.175-1.146,1.574c-0.434,0.398-0.922,0.702-1.464,0.91
		s-1.155,0.313-1.841,0.313c-1.518,0-2.705-0.497-3.561-1.492c-0.856-0.995-1.285-2.12-1.285-3.375c0-1.18,0.362-2.231,1.088-3.155
		c0.919-1.175,2.148-1.762,3.689-1.762c1.586,0,2.853,0.602,3.801,1.804c0.673,0.85,1.016,1.911,1.027,3.182h-8.373
		c0.022,1.082,0.368,1.968,1.035,2.658c0.668,0.691,1.493,1.037,2.476,1.037c0.474,0,0.935-0.082,1.383-0.247
		c0.448-0.164,0.829-0.383,1.143-0.656C100.892,11.098,101.231,10.657,101.597,10.05 M101.597,7.544
		c-0.16-0.639-0.393-1.148-0.698-1.53c-0.306-0.383-0.709-0.69-1.212-0.925c-0.502-0.233-1.03-0.351-1.584-0.351
		c-0.913,0-1.697,0.294-2.354,0.881c-0.479,0.428-0.842,1.069-1.088,1.925H101.597z"/>
	<path fill="#3C403F" d="M114.434,0.239v12.897h-1.18v-1.599c-0.502,0.609-1.064,1.068-1.688,1.377
		c-0.625,0.308-1.308,0.462-2.049,0.462c-1.317,0-2.441-0.478-3.374-1.433s-1.398-2.117-1.398-3.485c0-1.34,0.47-2.485,1.411-3.438
		c0.94-0.952,2.072-1.428,3.396-1.428c0.764,0,1.456,0.162,2.074,0.487s1.161,0.813,1.629,1.463V0.239H114.434z M109.649,4.747
		c-0.666,0-1.282,0.164-1.846,0.491c-0.563,0.328-1.012,0.788-1.346,1.38c-0.333,0.593-0.5,1.219-0.5,1.88
		c0,0.654,0.169,1.281,0.505,1.88c0.336,0.598,0.787,1.063,1.354,1.396c0.567,0.334,1.175,0.5,1.824,0.5
		c0.655,0,1.275-0.165,1.861-0.495c0.588-0.331,1.039-0.777,1.354-1.342c0.316-0.563,0.475-1.198,0.475-1.905
		c0-1.076-0.354-1.976-1.063-2.699C111.559,5.109,110.686,4.747,109.649,4.747"/>
	<rect x="116.966" y="0.239" fill="#3C403F" width="1.197" height="12.897"/>
	<path fill="#3C403F" d="M128.486,10.05l1.009,0.53c-0.33,0.649-0.713,1.175-1.146,1.574c-0.435,0.398-0.922,0.702-1.464,0.91
		c-0.543,0.208-1.156,0.313-1.841,0.313c-1.519,0-2.705-0.497-3.562-1.492c-0.855-0.995-1.284-2.12-1.284-3.375
		c0-1.18,0.362-2.231,1.088-3.155c0.919-1.175,2.148-1.762,3.689-1.762c1.586,0,2.853,0.602,3.801,1.804
		c0.673,0.85,1.016,1.911,1.026,3.182h-8.373c0.023,1.082,0.369,1.968,1.037,2.658c0.667,0.691,1.492,1.037,2.475,1.037
		c0.474,0,0.935-0.082,1.382-0.247c0.448-0.164,0.829-0.383,1.144-0.656C127.781,11.098,128.121,10.657,128.486,10.05
		 M128.486,7.544c-0.16-0.639-0.393-1.148-0.698-1.53c-0.306-0.383-0.709-0.69-1.212-0.925c-0.502-0.233-1.03-0.351-1.584-0.351
		c-0.913,0-1.698,0.294-2.354,0.881c-0.48,0.428-0.843,1.069-1.088,1.925H128.486z"/>
	<polygon fill="#909090" points="7.374,29.205 10.453,29.205 17.584,46.097 25.006,29.205 25.549,29.205 33.021,46.097 
		40.289,29.205 43.402,29.205 33.296,52.469 32.741,52.469 25.303,35.813 17.868,52.469 17.312,52.469 	"/>
	<path fill="#909090" d="M47.946,19.626c0.681,0,1.263,0.243,1.745,0.727c0.483,0.484,0.725,1.069,0.725,1.754
		c0,0.67-0.241,1.247-0.725,1.731c-0.482,0.484-1.064,0.728-1.745,0.728c-0.667,0-1.242-0.243-1.726-0.728
		c-0.481-0.484-0.723-1.062-0.723-1.731c0-0.685,0.241-1.27,0.723-1.754C46.704,19.869,47.279,19.626,47.946,19.626 M46.46,29.205
		h2.993v23.264H46.46V29.205z"/>
	<path fill="#909090" d="M67.371,31.75l-1.924,1.988c-1.602-1.554-3.166-2.331-4.694-2.331c-0.973,0-1.806,0.321-2.498,0.962
		c-0.693,0.642-1.04,1.39-1.04,2.245c0,0.756,0.285,1.476,0.857,2.16c0.571,0.698,1.771,1.518,3.6,2.458
		c2.229,1.155,3.742,2.268,4.543,3.336c0.785,1.083,1.178,2.302,1.178,3.656c0,1.91-0.671,3.528-2.013,4.854
		c-1.342,1.326-3.02,1.988-5.033,1.988c-1.342,0-2.623-0.292-3.843-0.876c-1.221-0.584-2.23-1.391-3.03-2.416l1.881-2.139
		c1.529,1.725,3.15,2.587,4.865,2.587c1.2,0,2.222-0.385,3.064-1.154s1.265-1.675,1.265-2.716c0-0.855-0.278-1.617-0.836-2.287
		c-0.557-0.655-1.814-1.483-3.771-2.48c-2.1-1.083-3.529-2.152-4.286-3.207c-0.756-1.055-1.136-2.259-1.136-3.614
		c0-1.767,0.604-3.235,1.811-4.404c1.206-1.169,2.729-1.753,4.572-1.753C63.045,28.606,65.201,29.654,67.371,31.75 M60.914,18.3
		h4.597l-6.308,6.586h-2.95L60.914,18.3z"/>
	<path fill="#909090" d="M72.674,29.205h2.993v4.169c1.197-1.596,2.522-2.79,3.977-3.581s3.036-1.187,4.747-1.187
		c1.739,0,3.282,0.442,4.629,1.325c1.348,0.885,2.342,2.074,2.983,3.571c0.641,1.497,0.962,3.827,0.962,6.991v11.975h-2.993V41.371
		c0-2.68-0.111-4.469-0.334-5.366c-0.347-1.54-1.012-2.697-1.995-3.475s-2.268-1.166-3.85-1.166c-1.811,0-3.433,0.6-4.865,1.797
		s-2.377,2.68-2.833,4.447c-0.285,1.154-0.428,3.264-0.428,6.328v8.532h-2.993V29.205z"/>
	<path fill="#909090" d="M100.417,19.626c0.681,0,1.263,0.243,1.745,0.727c0.483,0.484,0.725,1.069,0.725,1.754
		c0,0.67-0.241,1.247-0.725,1.731c-0.482,0.484-1.064,0.728-1.745,0.728c-0.668,0-1.243-0.243-1.725-0.728
		c-0.482-0.484-0.724-1.062-0.724-1.731c0-0.685,0.241-1.27,0.724-1.754C99.174,19.869,99.749,19.626,100.417,19.626 M98.931,29.205
		h2.994v23.264h-2.994V29.205z"/>
	<path fill="#909090" d="M119.157,28.606c3.585,0,6.555,1.297,8.911,3.892c2.142,2.365,3.213,5.167,3.213,8.403
		c0,3.25-1.132,6.09-3.395,8.52c-2.264,2.431-5.173,3.646-8.729,3.646c-3.569,0-6.486-1.215-8.749-3.646
		c-2.264-2.43-3.395-5.27-3.395-8.52c0-3.222,1.07-6.016,3.213-8.383C112.582,29.911,115.56,28.606,119.157,28.606 M119.147,31.536
		c-2.489,0-4.628,0.919-6.416,2.758s-2.682,4.063-2.682,6.671c0,1.682,0.407,3.25,1.223,4.704c0.815,1.453,1.917,2.576,3.305,3.367
		s2.911,1.188,4.57,1.188s3.183-0.396,4.57-1.188c1.387-0.791,2.489-1.914,3.305-3.367c0.814-1.454,1.223-3.022,1.223-4.704
		c0-2.608-0.898-4.832-2.693-6.671S121.622,31.536,119.147,31.536"/>
	<polygon fill="#909090" points="133.676,29.205 136.755,29.205 143.885,46.097 151.308,29.205 151.85,29.205 159.322,46.097 
		166.591,29.205 169.704,29.205 159.598,52.469 159.043,52.469 151.604,35.813 144.17,52.469 143.612,52.469 	"/>
	<path fill="#909090" d="M196.388,29.205v23.263h-2.95V48.47c-1.255,1.525-2.662,2.673-4.224,3.442
		c-1.56,0.77-3.268,1.154-5.12,1.154c-3.293,0-6.104-1.193-8.436-3.581c-2.33-2.388-3.496-5.292-3.496-8.713
		c0-3.35,1.177-6.215,3.528-8.596c2.353-2.38,5.182-3.57,8.488-3.57c1.91,0,3.639,0.406,5.186,1.219
		c1.546,0.813,2.904,2.031,4.073,3.656v-4.276H196.388z M184.425,31.493c-1.665,0-3.203,0.409-4.612,1.228
		c-1.41,0.819-2.531,1.969-3.364,3.449c-0.833,1.481-1.249,3.047-1.249,4.699c0,1.638,0.42,3.203,1.259,4.698
		c0.841,1.495,1.969,2.659,3.386,3.492c1.416,0.833,2.937,1.249,4.561,1.249c1.637,0,3.188-0.413,4.655-1.239
		c1.466-0.825,2.595-1.943,3.385-3.353s1.186-2.997,1.186-4.763c0-2.69-0.887-4.94-2.659-6.749
		C189.198,32.397,187.017,31.493,184.425,31.493"/>
	<line fill="#414042" x1="133.748" y1="8.288" x2="202.818" y2="8.288"/>
	<rect x="133.748" y="7.801" fill="#414042" width="69.07" height="0.973"/>
	<line fill="#414042" x1="0.028" y1="8.288" x2="67.688" y2="8.288"/>
	<rect x="0.028" y="7.801" fill="#414042" width="67.659" height="0.973"/>
	<line fill="#414042" x1="0.058" y1="60.537" x2="196.45" y2="60.537"/>
	<rect x="0.058" y="60.051" fill="#414042" width="196.393" height="0.973"/>
	<line fill="#414042" x1="202.818" y1="7.801" x2="202.761" y2="60.537"/>
	<rect x="202.303" y="7.8" fill="#414042" width="0.974" height="52.737"/>
	<line fill="#414042" x1="0.544" y1="8.288" x2="0.486" y2="61.023"/>
	<rect x="0.029" y="8.288" fill="#414042" width="0.973" height="52.736"/>
</g>
</svg>
